<?xml version="1.0" standalone="no"?>
<!DOCTYPE svg PUBLIC "-//W3C//DTD SVG 20010904//EN"
 "http://www.w3.org/TR/2001/REC-SVG-20010904/DTD/svg10.dtd">
<svg version="1.0" xmlns="http://www.w3.org/2000/svg"
 width="1024.000000pt" height="1024.000000pt" viewBox="0 0 1024.000000 1024.000000"
 preserveAspectRatio="xMidYMid meet">
<metadata>
Created by potrace 1.16, written by Peter Selinger 2001-2019
</metadata>
<g transform="translate(0.000000,1024.000000) scale(0.100000,-0.100000)"
fill="#000000" stroke="none">
<path d="M0 5120 l0 -5120 5120 0 5120 0 0 5120 0 5120 -5120 0 -5120 0 0
-5120z m5390 4336 c127 -16 254 -43 295 -61 17 -7 44 -17 60 -21 17 -4 39 -13
50 -20 11 -8 25 -14 32 -14 16 0 161 -71 219 -108 114 -71 233 -149 259 -170
65 -51 236 -225 280 -284 6 -7 29 -38 51 -68 34 -45 110 -164 154 -240 15 -25
57 -123 65 -150 4 -14 11 -29 15 -35 4 -5 10 -26 14 -45 3 -19 12 -47 20 -62
8 -14 17 -46 21 -70 4 -24 12 -54 18 -68 6 -14 18 -68 28 -120 10 -52 23 -116
28 -143 10 -47 27 -277 39 -553 l7 -141 37 -54 c20 -30 55 -74 77 -98 23 -24
55 -69 73 -100 17 -31 47 -77 65 -103 18 -26 33 -50 33 -52 0 -3 12 -22 26
-43 22 -32 75 -137 155 -309 10 -23 19 -45 19 -50 0 -5 6 -21 14 -35 7 -14 16
-39 20 -55 4 -16 13 -42 21 -59 7 -16 18 -52 25 -80 6 -27 16 -55 21 -61 5 -6
13 -43 19 -83 6 -41 13 -77 16 -82 3 -5 11 -48 19 -96 8 -49 21 -124 29 -168
9 -44 19 -118 24 -165 11 -106 -2 -337 -22 -416 -8 -33 -20 -104 -25 -160 -6
-55 -17 -117 -26 -137 -8 -20 -15 -44 -15 -54 0 -10 -7 -31 -16 -48 -8 -16
-20 -51 -26 -78 -5 -27 -22 -72 -37 -100 -15 -29 -38 -86 -51 -127 -13 -41
-31 -82 -39 -90 -9 -8 -29 -42 -45 -75 -15 -33 -32 -67 -37 -75 -5 -8 -23 -42
-40 -75 -16 -33 -39 -69 -50 -81 -10 -11 -19 -25 -19 -32 0 -6 -6 -15 -13 -19
-7 -4 -35 -42 -62 -83 -102 -154 -255 -321 -444 -481 -41 -35 -95 -84 -120
-111 -25 -26 -49 -48 -54 -48 -5 0 -26 -13 -46 -29 -20 -16 -63 -43 -96 -61
-33 -17 -64 -36 -70 -41 -5 -5 -15 -9 -22 -9 -7 0 -36 -11 -65 -24 -75 -33
-237 -94 -273 -102 -38 -8 -201 -61 -223 -73 -9 -5 -47 -11 -84 -14 -37 -3
-75 -10 -85 -15 -10 -5 -36 -12 -58 -15 -22 -3 -57 -9 -77 -13 l-38 -7 0 -61
c0 -33 6 -72 13 -86 12 -25 15 -25 161 -30 133 -4 149 -7 162 -25 13 -17 15
-57 12 -231 -3 -194 -5 -214 -23 -234 -17 -19 -26 -20 -82 -14 -35 3 -97 3
-138 -1 -69 -6 -75 -9 -75 -29 0 -12 6 -31 14 -41 12 -16 28 -19 122 -20 135
-2 184 -19 184 -63 0 -16 -3 -32 -7 -36 -5 -4 -8 -32 -8 -61 0 -75 -16 -88
-102 -91 -92 -2 -153 -19 -153 -43 0 -16 13 -20 78 -29 42 -6 95 -10 118 -9
34 1 45 -4 71 -33 34 -38 35 -68 8 -140 -7 -19 -16 -43 -19 -53 -5 -16 -11
-17 -38 -10 -38 9 -216 6 -268 -5 l-35 -8 -6 -87 -6 -87 -48 -52 c-27 -29 -62
-65 -78 -80 -17 -15 -35 -36 -41 -46 -105 -176 -127 -191 -193 -127 -20 19
-39 35 -43 35 -12 0 -130 121 -130 134 0 3 -8 14 -17 25 -54 57 -53 51 -54
275 -1 206 2 1181 3 1221 0 11 -2 43 -6 70 -4 28 -8 56 -9 62 0 7 -19 17 -41
22 -41 9 -41 9 -8 10 51 2 72 -14 72 -55 0 -21 4 -33 10 -29 6 4 10 102 10
261 0 219 2 254 15 254 17 0 20 27 5 50 -8 12 -10 11 -10 -7 0 -12 -4 -25 -10
-28 -11 -7 -14 51 -11 299 0 92 4 172 7 177 15 25 24 -11 24 -97 0 -69 3 -93
12 -88 7 4 8 3 4 -5 -4 -6 -3 -18 4 -26 12 -15 12 -19 4 -1205 -3 -388 -5
-712 -5 -720 0 -8 0 -64 1 -124 0 -92 3 -111 17 -122 16 -12 16 -13 2 -14 -14
0 -17 -13 -18 -75 -1 -48 4 -86 13 -103 19 -37 99 -122 115 -122 10 0 10 4 3
13 -10 13 -22 88 -12 82 3 -2 6 61 5 141 0 79 -2 144 -5 144 -3 0 -4 26 -3 57
4 80 3 165 -1 172 -2 3 0 30 3 58 4 29 4 56 0 60 -5 5 -4 28 2 52 5 24 6 48 1
55 -12 15 -13 134 -2 141 5 3 6 15 1 28 -5 12 -4 33 1 46 5 14 5 28 0 33 -5 5
-6 29 -2 53 4 25 3 45 -2 45 -4 0 -8 7 -8 15 0 8 3 15 8 15 4 0 4 37 1 83 -4
45 -4 85 -2 89 2 4 -1 16 -6 26 -6 12 -7 22 -1 28 6 6 6 22 1 40 -5 17 -5 55
0 87 6 37 6 64 -1 77 -7 14 -6 23 7 35 10 11 12 19 6 23 -13 9 -24 132 -12
132 6 0 7 36 4 87 -4 64 -2 89 7 95 8 5 9 8 2 8 -12 0 -11 306 0 317 3 4 0 11
-8 17 -19 16 -31 69 -14 64 7 -2 17 -14 23 -26 11 -26 27 -28 58 -7 22 14 22
14 18 -28 -2 -23 -11 -48 -20 -55 -15 -12 -14 -13 2 -8 10 3 17 0 17 -8 0 -8
-5 -16 -12 -18 -9 -3 -11 -31 -9 -98 2 -81 1 -92 -13 -87 -21 8 -21 -9 -1 -21
16 -8 11 -42 -6 -42 -5 0 -9 -7 -9 -15 0 -9 6 -12 15 -9 19 7 20 -19 2 -34 -8
-7 -12 -33 -11 -74 1 -35 3 -63 4 -63 1 0 3 -37 4 -82 2 -46 -1 -83 -6 -83
-10 0 0 -66 15 -95 17 -32 15 -168 -3 -183 -8 -8 -9 -11 -2 -7 17 9 15 -16 -4
-43 -8 -12 -10 -22 -5 -22 6 0 10 -8 9 -18 -4 -27 13 -106 25 -113 19 -13 -3
-30 -24 -19 -13 7 -19 7 -19 0 0 -5 3 -10 8 -10 4 0 13 -13 20 -29 11 -24 11
-38 1 -70 -9 -30 -9 -48 -2 -64 6 -13 7 -30 3 -37 -5 -7 -4 -24 1 -37 12 -32
11 -46 -1 -38 -5 3 -10 2 -10 -4 0 -5 4 -12 8 -15 5 -3 8 -31 6 -63 -2 -50 -5
-58 -21 -55 -14 2 -15 1 -4 -7 9 -6 14 -25 13 -52 -1 -23 3 -48 9 -55 6 -7 7
-19 3 -26 -8 -12 -15 -126 -13 -198 3 -73 0 -156 -6 -194 -3 -23 -1 -44 6 -52
6 -8 9 -25 7 -39 -3 -14 -1 -25 6 -25 8 0 8 -2 0 -8 -7 -4 -14 -33 -17 -64 -5
-53 -4 -59 20 -78 33 -26 49 -25 64 2 8 16 10 356 5 1357 -3 735 -7 1347 -9
1361 -1 19 3 26 21 28 24 4 26 -9 22 -102 -1 -22 2 -36 8 -32 14 8 32 -16 34
-48 1 -14 6 -26 11 -26 5 0 7 7 3 15 -3 8 0 14 6 12 6 -1 12 15 14 37 2 21 5
41 9 44 5 6 7 -128 6 -538 -1 -135 -1 -312 -1 -395 0 -82 1 -462 1 -843 1
-545 3 -692 13 -692 13 0 60 55 104 118 18 26 22 47 22 103 0 106 2 107 186
106 l150 -2 -4 55 c-6 70 -13 79 -60 73 -27 -4 -48 1 -75 16 -20 11 -37 16
-37 11 0 -6 -7 -10 -16 -10 -8 0 -12 5 -9 10 3 6 -4 10 -16 10 -12 0 -19 -3
-16 -7 4 -3 2 -12 -4 -20 -10 -11 -14 -8 -26 14 -20 39 -21 117 -1 137 9 9 18
11 20 6 2 -6 26 -4 63 6 33 9 85 15 116 15 51 -1 57 1 62 21 8 28 -12 108 -27
113 -6 2 -65 6 -130 8 -118 4 -120 4 -143 33 -20 25 -23 37 -19 89 4 57 5 60
34 66 17 3 83 7 148 8 64 1 121 4 126 7 5 3 8 32 6 65 l-3 59 -36 0 c-24 0
-39 -5 -43 -15 -3 -8 -10 -15 -17 -15 -6 0 -9 6 -6 14 4 9 -4 13 -25 14 -40 1
-74 25 -82 57 -11 44 3 50 119 49 l107 -1 -6 51 c-3 28 -6 68 -6 89 l0 38 -57
-1 c-150 -3 -258 12 -267 37 -5 13 -4 14 9 3 18 -15 19 -3 2 30 -16 31 -16
165 0 181 6 6 92 28 191 49 194 41 473 127 531 163 20 12 38 21 41 19 3 -1 13
5 23 13 9 8 17 11 17 7 0 -4 4 -2 8 3 4 6 34 23 67 40 75 37 159 87 163 97 2
4 12 8 23 8 10 0 19 5 19 11 0 6 5 9 11 7 6 -2 32 16 57 39 26 24 59 49 75 56
15 6 30 20 33 30 3 9 18 24 34 32 16 8 34 25 40 36 7 11 18 18 25 15 9 -3 21
7 32 24 9 17 23 30 30 30 7 0 18 9 25 20 7 11 18 20 25 20 7 0 13 5 13 11 0
10 69 86 150 166 19 19 34 41 32 49 -2 8 4 14 13 14 9 0 15 6 13 13 -2 6 6 21
17 33 36 37 61 70 68 87 3 9 11 17 17 17 5 0 10 7 10 15 0 8 13 29 28 47 25
29 52 81 55 105 0 4 9 16 18 26 9 10 35 56 58 103 22 46 45 84 50 84 6 0 8 7
5 15 -3 8 4 28 15 44 12 16 21 36 21 44 0 9 4 19 10 22 6 3 10 16 10 29 0 12
11 44 25 71 13 27 22 52 20 56 -3 4 2 9 9 12 8 3 15 14 15 24 -1 54 6 83 18
87 8 3 12 10 8 16 -3 5 2 32 11 61 14 41 15 56 5 70 -9 15 -8 19 4 19 9 0 12
6 8 16 -3 9 0 20 8 25 10 6 10 9 2 9 -17 0 -17 15 0 32 6 7 13 27 13 43 1 17
5 41 9 54 6 17 5 22 -3 17 -7 -4 -12 -2 -12 3 0 6 7 11 15 11 11 0 15 14 17
58 1 52 3 69 8 97 10 56 -11 454 -29 555 -22 115 -33 160 -39 156 -4 -2 -7 17
-7 42 -1 46 -17 108 -75 282 -89 269 -303 640 -473 824 -15 16 -27 33 -27 38
0 5 -12 19 -26 31 -20 17 -26 32 -25 62 1 138 0 172 -7 204 -5 20 -6 47 -2 61
6 27 -14 186 -30 233 -11 32 -3 37 10 5 8 -22 9 -22 9 5 1 15 -4 27 -10 27 -5
0 -8 3 -6 8 3 4 0 32 -5 62 -4 30 -11 73 -13 94 -3 22 -10 45 -16 52 -7 8 -7
14 1 19 7 4 7 12 0 25 -5 10 -10 30 -10 43 0 30 -37 117 -50 117 -14 0 -43 68
-37 84 3 8 -3 26 -14 40 -11 14 -16 26 -10 26 20 0 11 37 -14 56 -13 10 -27
25 -30 33 -4 9 5 5 19 -8 22 -21 26 -22 26 -7 0 23 -25 82 -39 91 -8 5 -10 -2
-5 -22 8 -33 5 -31 -26 21 -23 38 -23 38 -2 27 29 -16 28 -2 -3 31 -14 15 -25
35 -25 45 0 10 -8 30 -17 43 -19 29 -74 80 -85 80 -5 0 -8 6 -8 14 0 8 -7 16
-15 20 -8 3 -15 12 -15 19 0 8 -9 22 -20 32 -11 10 -19 23 -17 29 2 6 -6 20
-18 31 -42 38 -120 128 -105 121 8 -4 6 0 -4 8 -11 9 -31 16 -45 16 -20 0 -22
3 -12 9 12 8 12 12 2 25 -8 9 -20 16 -27 16 -8 0 -14 6 -14 14 0 8 -7 16 -15
20 -8 3 -12 12 -9 21 4 10 0 15 -15 15 -12 0 -21 4 -21 8 0 14 -48 32 -67 25
-14 -5 -12 -1 4 14 l23 20 -54 36 c-80 53 -123 69 -148 56 -18 -10 -20 -9 -15
6 8 19 -14 45 -39 45 -10 0 -26 8 -37 18 -15 12 -21 14 -24 4 -3 -9 -12 -6
-30 8 -15 11 -51 27 -82 36 -31 9 -81 27 -111 42 -68 32 -148 53 -153 39 -1
-5 -17 -2 -35 7 -18 9 -37 14 -42 11 -5 -3 -11 -1 -15 5 -3 5 -13 10 -21 10
-8 0 -13 -4 -9 -9 3 -6 -7 -8 -22 -6 -16 1 -27 8 -25 14 2 13 -14 15 -22 2 -6
-9 -52 -8 -76 2 -8 4 -31 6 -50 6 -19 0 -55 2 -80 4 -25 3 -53 1 -63 -5 -13
-7 -23 -6 -30 1 -6 6 -25 11 -41 10 -29 0 -29 -1 -8 -9 39 -16 24 -20 -50 -15
-42 3 -67 1 -60 -3 8 -6 -25 -15 -90 -27 -57 -10 -106 -23 -110 -29 -6 -8 -8
-7 -8 2 0 6 -7 12 -16 12 -8 0 -12 -4 -9 -10 3 -5 -3 -10 -14 -10 -12 0 -21
-4 -21 -10 0 -5 -20 -10 -44 -10 -24 0 -46 -3 -48 -7 -5 -12 -93 -53 -112 -53
-9 0 -16 -4 -16 -8 0 -5 -21 -19 -47 -32 -27 -12 -56 -29 -65 -37 -9 -8 -21
-12 -26 -9 -6 3 -13 -1 -16 -10 -4 -10 -14 -14 -26 -11 -14 4 -20 0 -20 -11
-1 -10 -36 -41 -81 -71 -44 -30 -95 -72 -113 -93 -19 -21 -37 -38 -41 -38 -13
0 -34 -28 -27 -35 4 -5 2 -6 -3 -2 -15 8 -45 -19 -101 -93 -27 -36 -52 -66
-56 -68 -5 -2 -8 -10 -8 -17 0 -7 -7 -15 -15 -19 -8 -3 -15 -11 -15 -18 0 -7
-12 -22 -26 -35 -14 -12 -24 -28 -22 -35 3 -7 -5 -21 -17 -30 -12 -10 -25 -32
-29 -50 -5 -26 -9 -30 -16 -18 -8 12 -10 10 -10 -8 0 -29 -18 -64 -30 -57 -13
8 -50 -59 -50 -91 0 -22 -3 -26 -10 -14 -8 13 -10 13 -10 -1 0 -8 -11 -38 -25
-65 -14 -27 -22 -57 -19 -66 3 -10 1 -18 -4 -18 -13 0 -71 -176 -75 -226 -2
-21 -9 -49 -16 -62 -6 -12 -10 -31 -6 -41 3 -9 -1 -31 -9 -47 -9 -17 -17 -76
-21 -144 -4 -63 -9 -122 -11 -130 -3 -8 -7 -89 -9 -179 -3 -90 -7 -173 -11
-183 -3 -11 0 -18 8 -18 11 0 11 -2 0 -9 -8 -4 -12 -17 -10 -29 2 -14 -25 -52
-87 -124 -135 -154 -198 -240 -301 -413 -56 -93 -70 -121 -123 -237 -114 -250
-187 -534 -216 -837 -19 -203 -1 -537 40 -728 60 -285 106 -419 223 -663 64
-134 208 -371 246 -405 6 -5 23 -28 38 -49 75 -109 348 -370 523 -499 28 -20
55 -40 60 -45 27 -21 147 -92 200 -118 33 -16 66 -35 73 -41 7 -7 18 -13 24
-13 6 0 9 -3 5 -6 -7 -7 -83 29 -155 73 -29 18 -56 33 -59 33 -12 0 -173 112
-173 120 0 4 -10 12 -22 17 -24 12 -76 52 -116 91 -12 12 -25 22 -29 22 -3 0
-30 24 -60 52 -180 172 -331 348 -393 457 -8 14 -21 30 -27 34 -7 4 -13 14
-13 22 0 8 -10 23 -22 35 -12 11 -19 20 -15 20 4 0 -7 21 -23 47 -17 26 -30
52 -30 59 0 7 -3 14 -7 16 -9 3 -57 95 -52 100 1 2 -10 25 -24 51 -15 26 -27
53 -27 60 0 7 -8 24 -17 37 -10 14 -19 36 -21 50 -2 14 -10 35 -18 47 -8 12
-14 31 -14 41 0 11 -7 37 -16 58 -9 22 -23 66 -31 98 -7 33 -17 65 -22 70 -5
6 -12 36 -16 66 -10 75 -11 83 -25 125 -6 19 -13 59 -14 88 -2 28 -7 108 -12
177 -13 184 -9 389 11 490 2 13 5 50 6 82 1 32 6 61 11 64 4 3 6 9 3 13 -2 5
0 23 5 42 6 19 12 50 15 69 6 49 84 300 123 395 11 28 26 66 34 85 7 19 19 41
26 48 6 7 12 20 12 28 0 18 29 77 42 85 5 3 10 10 10 15 1 11 30 57 41 65 5 3
8 9 7 13 -2 10 70 137 101 177 33 42 46 71 54 120 4 29 11 38 30 43 14 4 25
13 25 20 0 18 51 76 66 76 6 0 19 11 28 25 10 14 28 31 41 37 13 6 26 16 29
23 2 7 7 133 11 281 4 148 11 274 16 280 5 6 7 13 5 15 -3 2 4 65 14 139 17
122 28 176 74 350 15 59 90 233 136 314 37 68 140 220 151 224 5 2 9 9 9 15 0
41 276 300 448 421 150 105 420 220 599 255 195 38 480 50 663 27z m215 -106
c3 -5 2 -10 -4 -10 -5 0 -13 5 -16 10 -3 6 -2 10 4 10 5 0 13 -4 16 -10z
m-407 -148 c6 -18 -15 -14 -22 4 -4 10 -1 14 6 12 6 -2 14 -10 16 -16z m-228
-2 c0 -5 -9 -10 -21 -10 -12 0 -23 -8 -26 -20 -3 -11 -10 -20 -15 -20 -12 0 1
42 16 52 16 11 46 10 46 -2z m115 -8 c-3 -3 -11 0 -18 7 -9 10 -8 11 6 5 10
-3 15 -9 12 -12z m55 -3 c0 -14 -17 -10 -23 5 -4 10 -1 13 9 9 7 -3 14 -9 14
-14z m-291 2 c2 -1 -2 -8 -9 -16 -7 -9 -18 -14 -24 -12 -6 3 -19 -2 -28 -10
-9 -8 -28 -16 -41 -17 -14 0 -23 -4 -21 -7 2 -4 -21 -14 -50 -23 -30 -10 -62
-24 -72 -31 -11 -8 -28 -15 -40 -15 -11 0 -29 -9 -39 -20 -10 -11 -23 -19 -29
-18 -17 3 -56 -12 -56 -22 0 -5 -16 -14 -35 -21 -19 -7 -35 -17 -35 -21 0 -4
-6 -8 -14 -8 -8 0 -16 -6 -19 -13 -2 -7 -25 -23 -51 -35 -25 -13 -46 -28 -46
-33 0 -5 -9 -9 -20 -9 -11 0 -25 -9 -32 -20 -7 -11 -18 -20 -25 -20 -7 0 -35
-22 -63 -50 -28 -27 -56 -50 -63 -50 -8 0 -8 -3 1 -9 11 -7 10 -12 -5 -27 -11
-11 -23 -27 -26 -36 -4 -10 -13 -18 -22 -18 -8 0 -15 -7 -15 -16 0 -8 -4 -12
-10 -9 -5 3 -10 -4 -10 -15 0 -17 -4 -21 -17 -16 -10 4 -15 4 -11 1 3 -4 2
-20 -4 -37 -6 -18 -13 -25 -18 -19 -7 13 -60 -80 -60 -105 0 -8 -3 -14 -7 -14
-5 0 -23 -33 -41 -73 -18 -39 -43 -90 -54 -112 -12 -22 -22 -55 -24 -74 -1
-19 -8 -37 -15 -41 -6 -4 -9 -12 -6 -17 4 -6 -3 -26 -13 -46 -11 -21 -17 -37
-13 -37 4 0 2 -5 -5 -12 -7 -7 -12 -27 -12 -44 0 -18 -4 -35 -9 -38 -10 -7 -7
-92 4 -119 5 -11 2 -24 -7 -35 -20 -23 -40 -140 -28 -162 6 -10 5 -21 -1 -27
-5 -5 -10 -50 -12 -101 l-2 -91 -37 -23 c-21 -13 -38 -26 -38 -30 0 -5 -4 -8
-9 -8 -5 0 -8 24 -6 53 13 207 17 289 20 337 3 76 24 211 36 232 5 10 9 27 9
38 0 37 32 150 42 150 6 0 8 9 5 20 -3 11 -2 22 3 25 4 3 11 17 14 32 4 16 32
80 63 143 87 176 175 303 284 410 103 100 150 142 194 168 28 17 88 56 133 86
46 30 98 58 115 62 16 3 44 15 61 25 17 10 36 19 42 19 6 0 29 8 50 17 22 10
44 18 49 18 6 0 16 4 23 9 7 4 19 5 27 2 8 -3 17 -1 20 4 4 6 14 6 26 -1 20
-10 30 -6 66 27 9 9 35 11 62 5z m41 -1 c0 -5 -4 -10 -9 -10 -6 0 -13 5 -16
10 -3 6 1 10 9 10 9 0 16 -4 16 -10z m414 -23 c-7 -20 -23 -25 -54 -16 -24 7
-23 7 6 8 20 1 34 7 38 17 4 9 9 15 11 12 3 -3 3 -12 -1 -21z m132 -18 c1 -24
-1 -27 -12 -18 -15 12 -19 41 -7 52 10 11 18 -2 19 -34z m-268 3 c2 -7 -3 -12
-12 -12 -9 0 -16 7 -16 16 0 17 22 14 28 -4z m337 -1 c3 -6 -4 -15 -15 -21
-16 -8 -24 -8 -35 4 -8 8 -15 17 -15 20 0 10 58 7 65 -3z m-965 -21 c0 -5 -4
-10 -10 -10 -5 0 -10 5 -10 10 0 6 5 10 10 10 6 0 10 -4 10 -10z m1130 -30 c0
-5 -4 -10 -10 -10 -5 0 -10 5 -10 10 0 6 5 10 10 10 6 0 10 -4 10 -10z m144
-66 c4 -10 1 -14 -6 -12 -15 5 -23 28 -10 28 5 0 13 -7 16 -16z m141 -24 c13
-6 15 -9 5 -9 -8 0 -22 4 -30 9 -18 12 -2 12 25 0z m-65 -44 c6 -8 27 -20 45
-26 18 -6 41 -22 49 -36 21 -31 6 -31 -24 1 -13 13 -43 32 -67 41 -23 9 -43
21 -43 25 0 14 26 10 40 -5z m-1500 -75 c0 -5 -7 -12 -16 -15 -24 -9 -28 -7
-14 9 14 17 30 20 30 6z m1724 -55 c36 -35 66 -68 66 -73 0 -11 25 -32 73 -62
20 -12 37 -27 37 -33 0 -6 16 -25 36 -44 24 -21 34 -38 31 -48 -4 -10 -1 -16
8 -16 8 0 24 -9 35 -20 11 -11 20 -17 21 -12 0 4 5 -4 11 -18 6 -14 10 -31 9
-37 -1 -7 4 -13 11 -13 18 0 39 -36 32 -55 -4 -8 1 -17 10 -21 9 -3 16 -11 16
-18 0 -6 11 -33 24 -61 18 -36 21 -52 13 -57 -8 -5 -7 -8 4 -8 10 0 21 -16 29
-42 7 -24 17 -47 22 -52 4 -6 8 -21 8 -33 0 -13 8 -38 17 -56 10 -18 18 -43
19 -57 2 -14 7 -43 13 -66 12 -47 20 -98 26 -168 3 -27 7 -56 10 -65 3 -9 7
-66 11 -126 6 -123 9 -153 19 -184 4 -13 2 -21 -5 -21 -6 0 -2 -13 10 -30 12
-16 25 -30 29 -30 10 0 6 164 -4 203 -5 17 -3 27 4 27 7 0 8 8 2 23 -14 37
-25 250 -12 243 6 -4 10 -17 10 -29 -2 -30 20 -138 32 -160 7 -13 7 -23 -1
-32 -7 -8 -9 -18 -7 -22 8 -12 19 -129 21 -205 1 -64 -5 -81 -19 -58 -3 5 -12
7 -19 4 -14 -6 -63 51 -59 67 2 5 -12 16 -30 25 -36 19 -61 49 -64 79 -1 11
-4 49 -7 85 -5 58 -13 152 -20 235 -2 17 -9 44 -16 60 -7 17 -13 55 -15 85 -2
52 -17 119 -35 165 -5 11 -11 38 -15 60 -4 22 -19 63 -34 90 -16 28 -39 75
-51 105 -13 30 -36 74 -52 98 -15 24 -28 47 -28 51 0 5 -19 30 -42 56 -24 27
-42 51 -41 54 0 3 -3 5 -8 4 -5 -2 -9 6 -9 16 0 11 -13 31 -30 44 -16 14 -30
33 -30 42 0 8 -11 20 -24 25 -13 5 -25 12 -27 17 -6 14 -95 83 -108 83 -6 0
-11 6 -11 13 0 14 19 37 31 37 4 0 37 -29 73 -64z m-659 -60 c162 -49 232 -75
283 -104 23 -13 42 -20 42 -15 0 4 4 3 8 -4 10 -16 80 -63 94 -63 23 0 238
-199 238 -220 0 -4 11 -20 25 -36 14 -16 25 -35 25 -41 0 -7 4 -13 8 -13 16 0
109 -194 146 -300 19 -58 40 -136 46 -175 14 -88 27 -245 21 -245 -3 0 -39 18
-81 39 -105 55 -326 148 -396 166 -224 61 -288 74 -506 105 -148 21 -430 17
-644 -10 -230 -29 -550 -129 -784 -245 l-72 -35 7 83 c4 45 13 114 21 152 8
39 17 86 20 105 3 19 12 58 21 85 19 59 127 281 147 301 8 7 24 30 37 51 54
89 206 223 348 306 35 21 70 36 78 33 8 -3 11 -1 8 4 -3 6 1 12 9 15 9 3 24 8
34 12 20 7 30 9 55 11 10 1 16 6 13 10 -2 4 4 8 14 9 16 1 89 24 130 40 8 3
51 8 95 10 44 3 82 7 85 10 3 3 73 3 155 0 134 -5 162 -9 270 -41z m990 34 c3
-5 2 -10 -4 -10 -5 0 -13 5 -16 10 -3 6 -2 10 4 10 5 0 13 -4 16 -10z m-2312
-138 c-14 -26 -31 -52 -38 -57 -6 -6 -15 -20 -19 -33 -4 -12 -16 -27 -27 -32
-10 -6 -19 -17 -19 -25 0 -8 -9 -19 -20 -25 -11 -6 -20 -17 -20 -25 0 -8 -6
-18 -14 -22 -7 -4 -30 -42 -50 -83 -21 -41 -42 -83 -47 -92 -5 -10 -9 -23 -9
-28 0 -6 -11 -27 -25 -47 -13 -20 -22 -40 -19 -45 3 -5 -1 -17 -9 -26 -8 -9
-17 -30 -19 -47 -1 -16 -7 -33 -13 -37 -5 -4 -10 -11 -10 -15 0 -9 -20 -88
-35 -138 -4 -16 -11 -48 -15 -70 -4 -22 -14 -48 -23 -58 -12 -14 -13 -20 -4
-26 14 -9 5 -71 -10 -71 -6 0 -6 -5 1 -14 8 -10 8 -16 -2 -24 -19 -16 -21 90
-2 135 17 41 18 46 6 39 -5 -3 -5 11 1 32 5 20 13 62 18 92 5 30 15 77 24 104
8 27 13 53 10 58 -3 4 0 8 5 8 6 0 11 9 11 21 0 11 16 55 36 97 20 42 37 82
38 87 4 24 62 133 92 175 75 103 130 169 141 170 6 0 21 15 33 34 20 34 38 47
52 39 4 -2 -4 -25 -19 -51z m2187 18 c0 -5 -4 -10 -10 -10 -5 0 -10 5 -10 10
0 6 5 10 10 10 6 0 10 -4 10 -10z m-2510 -124 c0 -3 -4 -8 -10 -11 -5 -3 -10
-1 -10 4 0 6 5 11 10 11 6 0 10 -2 10 -4z m-55 -366 c3 -5 1 -10 -4 -10 -6 0
-11 5 -11 10 0 6 2 10 4 10 3 0 8 -4 11 -10z m3122 -182 c-3 -8 -6 -5 -6 6 -1
11 2 17 5 13 3 -3 4 -12 1 -19z m21 -94 c0 -18 -3 -22 -9 -13 -11 18 -11 39 0
39 5 0 9 -12 9 -26z m-1863 -94 c3 -6 -5 -10 -19 -10 -13 0 -31 -3 -40 -6 -9
-3 -16 -1 -16 4 0 6 12 13 28 15 15 2 30 5 34 6 4 0 10 -3 13 -9z m-90 -10
c-3 -5 -10 -10 -16 -10 -5 0 -9 5 -9 10 0 6 7 10 16 10 8 0 12 -4 9 -10z
m-302 -23 c3 -9 -6 -14 -27 -15 l-31 -2 25 14 c14 8 26 14 26 15 1 1 4 -5 7
-12z m80 6 c3 -5 -8 -9 -24 -10 -17 -1 -27 2 -24 7 7 12 42 13 48 3z m-193
-44 c0 -5 -4 -9 -10 -9 -5 0 -10 7 -10 16 0 8 5 12 10 9 6 -3 10 -10 10 -16z
m-53 -10 c-24 -14 -13 -27 20 -23 16 3 6 -3 -21 -11 -26 -9 -51 -14 -54 -11
-3 3 2 6 11 6 11 0 17 8 17 25 0 19 5 25 23 25 20 -1 20 -2 4 -11z m-87 -52
c-16 -17 -32 -28 -35 -25 -8 8 48 65 58 60 4 -2 -6 -18 -23 -35z m-25 23 c-3
-5 -11 -10 -16 -10 -6 0 -7 5 -4 10 3 6 11 10 16 10 6 0 7 -4 4 -10z m-97 -32
c-3 -7 -13 -15 -23 -16 -15 -4 -16 -2 -4 12 17 19 32 21 27 4z m182 -2 c0 -3
-4 -8 -10 -11 -5 -3 -10 -1 -10 4 0 6 5 11 10 11 6 0 10 -2 10 -4z m-187 -49
c-31 -29 -43 -34 -67 -30 -21 4 -27 3 -22 -6 4 -6 0 -18 -8 -27 -15 -14 -16
-14 -16 5 0 12 -4 21 -10 21 -5 0 -9 -6 -7 -12 1 -7 -6 -12 -15 -12 -10 1 -18
-3 -18 -8 0 -6 -6 -5 -14 2 -11 9 -19 9 -33 0 -15 -9 -14 -10 7 -4 21 6 23 5
13 -8 -7 -8 -10 -18 -6 -21 3 -4 1 -7 -5 -7 -5 0 -17 -3 -26 -6 -11 -4 -16 0
-17 12 -1 18 -2 18 -6 1 -4 -15 -7 -16 -21 -5 -15 12 -15 10 0 -14 15 -22 15
-28 4 -38 -17 -13 -31 3 -22 25 3 10 -1 15 -13 15 -10 0 -21 6 -24 14 -4 10 0
12 14 9 10 -3 19 0 19 6 0 6 7 11 16 11 8 0 13 4 9 9 -9 16 37 42 52 29 10 -8
13 -7 13 3 0 15 50 43 59 33 3 -3 -2 -11 -12 -18 -9 -7 -17 -16 -17 -20 0 -4
13 2 29 13 15 11 31 17 35 14 4 -4 4 0 0 10 -8 22 12 22 33 1 13 -13 18 -13
25 -2 8 10 11 10 15 0 6 -16 24 -5 17 11 -4 11 44 38 54 31 2 -1 -14 -18 -35
-37z m713 15 c-9 -8 -66 -10 -66 -1 0 4 12 9 28 11 29 4 47 -1 38 -10z m79 8
c3 -5 1 -10 -4 -10 -6 0 -11 5 -11 10 0 6 2 10 4 10 3 0 8 -4 11 -10z m75 1
c0 -6 -4 -13 -10 -16 -5 -3 -10 1 -10 9 0 9 5 16 10 16 6 0 10 -4 10 -9z
m-820 -20 c0 -13 -29 -35 -37 -28 -7 8 15 37 28 37 5 0 9 -4 9 -9z m540 -1 c0
-5 -4 -10 -10 -10 -5 0 -10 -7 -10 -15 0 -8 -4 -15 -10 -15 -13 0 -13 17 0 25
6 4 8 11 5 16 -4 5 1 9 9 9 9 0 16 -4 16 -10z m585 0 c3 -5 -1 -10 -10 -10 -9
0 -13 5 -10 10 3 6 8 10 10 10 2 0 7 -4 10 -10z m-661 -6 c9 -3 13 -10 10 -15
-3 -5 -10 -6 -16 -3 -6 4 -14 1 -18 -7 -6 -9 -12 -10 -22 -2 -14 12 -71 4
-123 -16 -20 -8 -31 -9 -33 -2 -2 6 -13 4 -28 -5 -15 -11 -24 -12 -24 -5 0 16
33 27 120 41 41 7 82 13 90 15 8 1 18 3 22 4 3 0 13 -2 22 -5z m746 -4 c0 -5
-5 -10 -11 -10 -5 0 -7 5 -4 10 3 6 8 10 11 10 2 0 4 -4 4 -10z m-650 -20 c0
-5 -5 -10 -11 -10 -5 0 -7 5 -4 10 3 6 8 10 11 10 2 0 4 -4 4 -10z m250 -11
c0 -8 6 -7 17 2 14 12 16 12 11 -1 -2 -8 -18 -15 -36 -16 -32 -2 -43 10 -19
19 20 9 27 8 27 -4z m-613 -21 c-2 -7 -10 -12 -17 -10 -7 2 -21 -5 -31 -14
-10 -9 -25 -14 -33 -11 -8 3 -17 -1 -20 -9 -11 -30 -6 -52 14 -57 11 -3 20
-13 20 -22 0 -13 3 -15 13 -6 11 8 17 5 27 -14 15 -28 30 -33 30 -10 0 8 5 15
10 15 6 0 10 -9 10 -20 0 -11 5 -20 10 -20 6 0 10 5 10 10 0 6 5 10 12 10 6 0
2 -10 -10 -23 -26 -27 -27 -40 -7 -57 8 -7 15 -22 15 -34 0 -17 2 -18 10 -6 5
8 12 11 17 7 4 -5 1 -12 -7 -17 -21 -14 -30 -12 -30 5 0 17 -16 20 -25 5 -3
-5 -13 -6 -21 -3 -9 3 -20 0 -25 -8 -7 -11 -9 -11 -9 3 0 9 6 21 14 25 17 10
31 53 17 53 -6 0 -11 -4 -11 -10 0 -5 -7 -10 -15 -10 -8 0 -15 -7 -15 -15 0
-8 -10 -19 -21 -26 -16 -8 -18 -13 -9 -19 9 -6 7 -13 -8 -28 -21 -21 -55 -20
-78 2 -12 13 -7 36 8 36 6 0 8 -7 4 -15 -3 -9 0 -15 8 -15 17 0 14 93 -5 116
-11 13 -11 18 -1 21 6 3 12 16 12 29 0 15 6 24 15 24 11 0 14 -7 9 -25 -8 -30
1 -33 16 -4 9 17 8 24 -9 38 -12 10 -21 23 -21 30 0 17 -64 18 -85 1 -5 -4
-30 -14 -55 -21 -25 -7 -50 -20 -56 -28 -7 -9 -18 -12 -30 -6 -15 6 -6 14 51
41 39 18 79 33 91 34 11 0 24 3 28 7 9 9 155 61 174 62 8 1 12 -5 9 -11z m360
-10 c25 -23 32 -48 8 -28 -9 7 -22 9 -32 4 -10 -4 -25 -8 -33 -8 -9 -1 -16
-13 -18 -33 -4 -39 -13 -42 -27 -10 -6 12 -17 21 -26 21 -11 -1 -15 6 -14 20
1 11 3 27 4 34 0 6 6 12 12 12 6 0 8 -9 4 -20 -12 -37 5 -42 43 -13 21 15 39
31 40 35 6 13 14 10 39 -14z m-237 -38 c0 -27 -16 -33 -34 -14 -19 19 -20 31
-3 37 20 7 37 -4 37 -23z m-710 1 c0 -5 -13 -14 -30 -21 -29 -12 -41 -30 -20
-30 14 0 13 -57 -2 -66 -8 -5 -9 0 -6 14 4 12 2 22 -3 22 -5 0 -9 -7 -9 -15 0
-8 -6 -13 -12 -11 -7 1 -10 1 -5 -1 15 -9 6 -24 -12 -18 -15 5 -18 1 -13 -20
2 -15 0 -25 -7 -25 -7 0 -10 4 -6 9 3 5 1 12 -4 15 -5 4 -8 17 -6 31 1 14 -2
25 -6 25 -5 0 -9 -21 -9 -46 0 -26 -4 -43 -10 -39 -5 3 -16 -5 -24 -18 -19
-28 -90 -70 -112 -65 -13 2 -11 8 11 31 37 37 11 35 -32 -3 -18 -16 -30 -30
-25 -30 15 0 21 -37 9 -49 -15 -15 -27 -14 -27 4 0 8 -4 15 -9 15 -5 0 -9 -14
-9 -31 1 -17 -7 -37 -17 -47 -10 -9 -15 -11 -11 -4 4 7 2 12 -5 12 -10 0 -10
3 -1 12 7 7 12 18 12 25 0 22 -26 14 -38 -11 -9 -20 -8 -27 4 -37 14 -11 12
-16 -17 -41 -17 -15 -33 -28 -35 -28 -10 0 -2 19 17 39 20 21 20 24 5 39 -10
11 -16 12 -16 4 0 -7 6 -12 13 -12 6 0 -4 -14 -23 -31 -19 -16 -54 -48 -77
-69 -23 -22 -54 -45 -68 -52 -14 -6 -25 -15 -25 -20 0 -9 36 -5 46 5 4 4 12 7
18 7 6 0 -4 -13 -22 -30 -37 -34 -44 -37 -36 -15 7 17 3 18 -20 9 -9 -3 -14
-9 -11 -14 2 -4 -7 -18 -20 -30 -14 -13 -25 -28 -25 -32 0 -15 -29 -40 -39
-34 -5 3 -11 -7 -14 -22 -3 -15 -26 -48 -51 -74 -25 -26 -46 -52 -46 -59 0 -6
-9 -21 -20 -33 -59 -61 -69 -78 -66 -114 2 -21 -1 -44 -5 -54 -7 -13 -5 -15
12 -11 21 6 21 6 3 -22 l-19 -29 -8 37 c-5 20 -12 37 -16 37 -12 0 -41 -58
-41 -83 0 -13 -7 -30 -15 -37 -8 -7 -15 -18 -15 -24 0 -6 7 -2 15 8 13 17 15
18 15 3 0 -9 -10 -27 -21 -38 -17 -17 -19 -23 -8 -30 11 -7 11 -9 -2 -9 -18 0
-33 -26 -24 -40 3 -5 -4 -11 -14 -15 -12 -4 -18 -12 -14 -21 3 -8 0 -21 -6
-28 -7 -8 -8 -17 -3 -19 11 -8 57 52 67 88 7 25 9 27 12 9 2 -12 -9 -45 -26
-75 -26 -47 -33 -54 -56 -51 -18 3 -25 0 -20 -8 4 -6 2 -17 -5 -25 -9 -10 -7
-16 7 -24 17 -9 17 -10 -1 -17 -11 -4 -21 -2 -27 7 -12 20 -11 2 2 -22 6 -12
8 -28 4 -37 -3 -9 -6 -19 -6 -22 -1 -3 -5 -10 -11 -17 -5 -7 -7 -16 -4 -21 3
-6 -1 -15 -9 -22 -16 -14 -20 -40 -6 -40 5 0 7 -9 4 -20 -5 -19 -6 -19 -18 -4
-8 11 -14 13 -19 6 -3 -6 -2 -14 4 -17 8 -5 7 -12 -2 -22 -11 -14 -10 -15 12
-8 23 7 23 7 7 -9 -18 -19 -24 -51 -7 -41 6 3 10 2 10 -4 0 -5 -4 -13 -10 -16
-5 -3 -10 -1 -10 4 0 6 -4 11 -9 11 -5 0 -10 -15 -10 -32 -3 -66 -6 -88 -13
-88 -5 0 -8 -12 -8 -26 0 -21 4 -25 20 -21 11 3 20 1 20 -4 0 -5 -10 -11 -23
-14 -19 -5 -23 -13 -25 -55 -1 -27 -6 -60 -12 -74 -5 -14 -6 -26 -1 -26 10 0
6 -143 -4 -159 -3 -6 -1 -11 5 -11 7 0 9 -8 5 -21 -11 -34 -13 -53 -6 -64 13
-21 7 -56 -9 -53 -13 3 -15 32 -18 201 -2 170 4 266 23 377 3 14 11 63 19 110
19 122 63 265 150 495 6 17 19 43 29 58 9 14 17 31 17 37 0 6 14 37 32 68 17
31 38 70 46 85 8 16 20 31 27 33 7 3 15 17 19 32 6 29 97 161 208 302 58 75
195 214 299 305 48 42 240 184 294 218 41 26 74 29 60 6 -3 -5 2 -6 11 -2 16
6 16 7 0 19 -19 13 -18 14 39 45 35 19 55 23 55 10z m657 -17 c18 -28 8 -48
-11 -22 -16 21 -41 7 -34 -19 5 -18 2 -19 -26 -14 -35 8 -43 28 -22 56 14 19
15 19 9 -5 -6 -22 -5 -24 10 -12 9 8 16 17 15 20 -3 29 39 25 59 -4z m283 -4
c-6 -11 -8 -25 -5 -30 3 -6 -1 -7 -9 -4 -19 7 -21 25 -4 42 19 19 30 14 18 -8z
m-400 -11 c0 -5 -7 -9 -15 -9 -15 0 -20 12 -9 23 8 8 24 -1 24 -14z m-510 -10
c0 -11 -4 -17 -10 -14 -5 3 -10 13 -10 21 0 8 5 14 10 14 6 0 10 -9 10 -21z
m750 11 c0 -5 -2 -10 -4 -10 -3 0 -8 5 -11 10 -3 6 -1 10 4 10 6 0 11 -4 11
-10z m-775 -17 c3 -10 2 -19 -4 -21 -5 -2 -8 -11 -5 -20 4 -12 2 -11 -7 3 -14
21 -18 35 -12 48 7 13 21 8 28 -10z m396 -11 c-12 -23 -9 -72 6 -72 6 0 16
-14 22 -31 15 -42 14 -49 -4 -49 -9 0 -20 -10 -25 -22 -7 -18 -9 -19 -9 -5 -1
28 -19 20 -37 -18 -9 -19 -22 -35 -29 -35 -21 0 -28 -62 -9 -79 9 -9 14 -10
10 -3 -4 7 -5 21 -1 32 8 25 34 15 28 -11 -6 -23 -5 -23 35 -3 18 8 32 21 32
29 0 7 9 15 20 18 18 5 18 4 -2 -24 -12 -16 -25 -29 -29 -29 -4 0 -9 -9 -12
-20 -6 -22 -37 -28 -37 -7 0 7 -7 3 -15 -7 -8 -11 -13 -28 -9 -38 9 -29 -5
-39 -27 -17 -11 11 -18 23 -16 27 2 4 -2 21 -10 37 l-14 30 6 -28 c4 -19 2
-26 -5 -22 -15 9 -12 -7 6 -33 8 -12 10 -22 5 -22 -6 0 -11 4 -11 10 0 5 -7 7
-15 4 -8 -4 -15 -12 -15 -20 0 -7 -9 -19 -21 -27 -19 -14 -19 -16 -4 -25 11
-5 13 -12 7 -16 -5 -3 -15 1 -22 9 -16 19 -30 19 -30 0 0 -9 11 -20 25 -25 26
-10 31 -25 15 -50 -8 -13 -10 -12 -10 3 0 10 -4 15 -10 12 -5 -3 -10 -12 -10
-19 0 -20 49 -68 61 -60 14 8 -7 -33 -29 -58 -12 -14 -18 -15 -29 -7 -19 16
-22 9 -11 -21 8 -22 11 -23 21 -9 7 9 22 21 35 28 19 10 22 9 22 -5 0 -10 -3
-15 -6 -11 -9 9 -52 -46 -47 -60 8 -21 26 -15 20 6 -3 12 1 22 10 25 11 4 13
2 9 -9 -3 -8 -1 -15 5 -15 6 0 13 9 16 20 4 14 11 19 23 15 12 -4 19 1 23 16
5 18 9 20 21 10 11 -10 16 -7 25 16 10 24 11 25 7 4 -3 -14 -2 -30 3 -35 15
-21 18 -52 5 -64 -22 -20 -26 -14 -19 31 5 37 4 40 -8 25 -8 -10 -20 -18 -28
-18 -22 -1 -52 -27 -40 -35 14 -8 14 -35 1 -35 -5 0 -10 7 -10 15 0 8 -7 15
-15 15 -8 0 -15 -5 -15 -11 0 -6 6 -7 13 -2 18 11 -51 -74 -76 -94 -21 -17
-26 -53 -7 -53 5 0 7 -7 3 -16 -4 -12 0 -14 23 -8 36 9 114 65 110 79 -3 9 32
85 39 85 2 0 8 -13 13 -29 8 -23 8 -29 -2 -25 -18 7 -38 -20 -30 -40 3 -9 10
-16 14 -16 13 0 50 51 44 61 -3 5 -2 9 3 9 4 0 8 16 9 36 0 23 7 40 18 46 14
8 15 13 5 24 -6 8 -9 17 -5 21 3 3 6 1 6 -5 0 -7 5 -12 10 -12 6 0 10 7 10 15
0 8 5 15 10 15 6 0 10 -4 10 -9 0 -6 -4 -13 -10 -16 -5 -3 -10 -15 -10 -26 0
-10 -9 -24 -20 -31 -24 -16 -25 -22 -3 -43 10 -11 12 -19 6 -23 -6 -4 -14 -22
-18 -40 -5 -23 -11 -32 -21 -28 -11 4 -13 0 -8 -19 3 -14 2 -25 -2 -25 -5 0
-9 -13 -9 -30 0 -17 5 -30 13 -30 6 0 12 7 12 15 0 8 5 15 10 15 6 0 10 4 10
10 0 5 -7 7 -15 4 -21 -9 -19 6 7 33 21 23 45 32 33 13 -3 -5 -1 -10 4 -10 6
0 11 -5 11 -10 0 -6 -8 -10 -17 -8 -11 2 -17 -2 -15 -11 1 -7 -4 -24 -13 -37
-8 -13 -11 -24 -6 -24 5 0 13 5 16 10 3 6 11 10 16 10 13 0 6 -25 -7 -25 -5
-1 -19 -6 -31 -13 -19 -11 -22 -10 -17 3 4 10 0 15 -10 15 -9 0 -16 -7 -16
-16 0 -9 -10 -24 -22 -34 -13 -10 -20 -22 -15 -26 4 -4 14 2 23 14 18 26 39
30 29 5 -4 -10 -8 -25 -9 -35 -1 -9 -8 -23 -15 -32 -9 -11 -10 -16 -2 -16 6 0
11 -7 11 -16 0 -14 3 -14 15 -4 9 7 13 21 10 31 -3 9 -1 21 6 24 8 6 8 9 -1
15 -15 9 12 55 37 64 26 10 28 -3 5 -24 -22 -21 -31 -47 -12 -35 7 4 9 -2 4
-19 -3 -15 -2 -26 4 -26 12 0 26 29 23 47 -1 7 4 23 11 35 7 13 11 28 10 35
-2 7 8 17 20 24 23 12 23 12 4 -10 -12 -13 -15 -21 -6 -21 7 0 10 -7 6 -17 -4
-10 -4 -14 0 -10 4 4 16 0 26 -10 20 -18 39 -10 20 9 -24 24 -11 29 18 8 17
-12 30 -29 30 -38 0 -12 -3 -14 -8 -5 -6 10 -12 10 -28 -2 -16 -13 -17 -16 -4
-25 12 -8 12 -12 2 -18 -12 -8 -42 -57 -42 -69 0 -3 8 -2 18 1 16 7 16 6 0
-11 -17 -16 -19 -16 -35 0 -16 15 -15 18 3 38 19 21 19 21 -1 19 -20 -3 -45 4
-76 20 -11 5 -16 4 -16 -6 0 -8 4 -14 9 -14 4 0 8 -4 8 -10 0 -5 -6 -10 -14
-10 -8 0 -18 -5 -21 -10 -4 -7 2 -9 19 -4 22 5 25 3 24 -25 -1 -17 -5 -31 -10
-31 -4 0 -8 -6 -8 -12 -1 -15 -35 -58 -46 -58 -4 0 -3 5 4 12 7 7 12 23 12 36
0 13 4 21 9 18 5 -3 11 2 13 12 4 13 -2 18 -26 19 -17 1 -26 -1 -21 -5 14 -10
19 -52 6 -52 -6 0 -8 7 -5 15 4 8 1 15 -6 15 -9 0 -11 -10 -6 -30 3 -19 2 -29
-4 -25 -6 3 -10 4 -10 1 0 -2 -3 -12 -7 -22 -5 -14 -3 -16 12 -11 15 6 16 5 6
-7 -7 -8 -10 -19 -7 -25 4 -5 -7 -4 -23 2 -28 10 -29 12 -17 36 7 14 11 32 9
38 -3 7 3 23 11 35 22 30 20 38 -6 37 -13 0 -17 -3 -11 -6 17 -6 -12 -63 -32
-63 -8 0 -15 -5 -15 -11 0 -5 5 -7 10 -4 6 3 10 0 10 -8 0 -17 -24 -40 -32
-31 -4 3 -21 -2 -39 -11 -29 -15 -31 -15 -26 -1 4 9 2 16 -4 16 -7 0 -9 -10
-5 -26 5 -17 1 -35 -9 -51 -9 -14 -14 -27 -12 -30 7 -6 -53 -63 -66 -63 -5 0
-7 10 -4 23 l6 22 -18 -22 c-17 -20 -19 -20 -34 -5 -9 9 -20 12 -24 8 -4 -4
-1 -11 6 -15 9 -6 10 -11 2 -15 -6 -4 -11 -3 -11 2 0 16 -45 8 -65 -10 -18
-17 -18 -18 1 -20 10 0 26 -2 34 -3 8 -1 26 5 39 13 13 8 20 9 17 3 -4 -6 0
-11 8 -11 9 0 16 6 17 13 0 10 2 10 6 0 7 -18 32 -16 40 3 4 11 13 13 34 9 17
-4 29 -2 29 4 0 5 9 13 20 16 32 10 23 25 -12 20 -18 -3 -27 -3 -20 1 6 3 12
12 12 20 0 8 4 14 9 14 5 0 7 9 4 20 -5 20 12 29 19 9 2 -6 12 -1 23 12 l20
22 -22 -12 c-13 -6 -23 -7 -23 -2 0 13 58 32 65 21 3 -5 1 -11 -4 -15 -6 -3
-8 -12 -4 -20 4 -11 1 -13 -13 -8 -16 6 -17 5 -4 -9 17 -18 51 -3 47 21 -1 9
6 17 15 19 12 2 15 -2 11 -16 -6 -26 11 -36 37 -20 14 9 19 20 15 35 -5 23 17
53 41 53 15 0 19 -21 7 -34 -4 -3 -8 -13 -9 -22 -1 -8 -14 -24 -28 -35 -14
-11 -23 -26 -20 -33 3 -8 -5 -24 -18 -35 -17 -17 -20 -24 -10 -30 10 -6 10
-10 -2 -21 -9 -7 -13 -16 -10 -21 3 -5 -2 -9 -11 -9 -9 0 -13 5 -10 10 3 6 1
10 -5 10 -6 0 -16 -11 -22 -25 -6 -14 -15 -25 -21 -25 -5 0 -7 -7 -3 -15 6
-17 4 -18 -18 -9 -20 8 -21 24 -1 24 8 0 15 5 15 10 0 15 -16 12 -30 -5 -7 -9
-19 -14 -25 -11 -7 2 -23 -3 -35 -11 -21 -15 -22 -15 -11 6 7 11 16 21 21 21
6 0 10 7 10 15 0 15 30 36 52 34 10 0 10 -2 1 -6 -7 -2 -13 -9 -13 -14 0 -5
20 1 45 13 29 14 45 29 45 40 0 10 5 18 10 18 18 0 10 39 -9 45 -22 7 -61 -13
-61 -31 0 -7 -20 -27 -45 -45 -24 -19 -45 -41 -46 -49 -1 -12 -2 -11 -6 2 -7
25 -32 30 -45 8 -15 -24 -33 -27 -24 -4 3 9 2 12 -5 9 -5 -4 -7 -15 -4 -24 3
-11 -2 -24 -12 -32 -15 -12 -16 -12 -9 5 7 19 6 19 -14 1 -11 -10 -23 -15 -26
-12 -4 3 6 18 22 32 22 21 25 28 14 35 -15 9 -42 -19 -54 -57 -6 -18 -2 -23
19 -29 20 -5 23 -9 14 -20 -6 -8 -18 -14 -26 -14 -9 0 -13 -6 -9 -15 6 -16 -3
-19 -28 -9 -22 8 -20 21 4 29 11 3 20 11 20 17 0 5 -9 12 -20 15 -11 3 -20 11
-20 18 0 7 -7 16 -15 19 -23 8 -32 -24 -11 -39 9 -7 13 -16 8 -19 -4 -3 -16 4
-25 15 -21 24 -33 24 -40 -1 -6 -25 -35 -37 -50 -20 -9 9 -8 15 7 24 36 22 61
44 55 50 -3 3 -27 -8 -53 -25 -28 -17 -57 -28 -70 -26 -17 3 -15 5 7 6 15 0
27 5 27 10 0 12 -32 24 -39 14 -3 -4 -13 -8 -21 -8 -8 0 -14 -6 -12 -13 2 -10
-6 -8 -29 5 -21 12 -33 14 -36 7 -2 -6 -18 -10 -34 -8 -24 3 -30 1 -25 -11 10
-26 -30 -38 -66 -21 -36 18 -50 14 -19 -6 12 -7 21 -18 21 -25 0 -16 -5 -16
-31 -2 -15 8 -24 7 -35 -2 -13 -10 -17 -10 -25 2 -14 22 -11 32 19 56 l27 23
-27 -10 c-18 -6 -28 -6 -28 0 0 6 -5 10 -11 10 -6 0 -8 -9 -4 -20 5 -15 3 -18
-8 -14 -8 3 -17 -2 -21 -11 -3 -9 -2 -13 4 -10 21 13 31 -7 14 -26 -21 -23
-34 -24 -34 -4 0 22 -13 18 -40 -10 -25 -27 -85 -62 -74 -43 4 6 -4 19 -17 29
-22 17 -23 18 -6 37 20 22 22 32 4 32 -8 0 -13 12 -12 32 0 21 -5 34 -15 36
-24 4 -22 -49 3 -75 17 -19 18 -23 5 -23 -9 0 -18 6 -21 13 -2 6 -4 -7 -3 -30
1 -46 -8 -63 -26 -45 -9 9 -7 16 7 32 16 18 16 20 2 20 -10 0 -17 -4 -17 -10
0 -16 -27 -11 -34 6 -7 19 20 67 33 59 13 -7 20 17 14 47 -4 21 0 26 21 30 15
3 29 1 32 -4 3 -4 9 -6 13 -4 3 3 6 -11 6 -30 -1 -26 1 -31 11 -23 7 6 10 17
7 26 -7 17 13 33 42 33 11 0 33 7 49 15 15 8 34 15 41 15 7 0 23 11 36 23 13
13 35 27 50 30 76 19 169 120 169 184 0 18 5 33 10 33 6 0 10 -11 10 -25 0
-31 19 -33 21 -2 1 12 2 29 3 38 1 9 7 23 15 32 9 12 10 17 2 17 -8 0 -9 5 -1
19 14 26 13 42 -2 39 -28 -6 -18 18 11 27 33 10 42 25 15 25 -8 0 -12 5 -9 10
3 6 1 10 -4 10 -6 0 -11 -6 -11 -14 0 -8 -14 -19 -31 -25 -39 -13 -39 -13 -39
0 0 5 3 8 8 5 4 -2 16 2 27 10 10 8 15 14 9 14 -5 0 -3 4 5 9 20 13 5 30 -24
26 -14 -1 -25 2 -25 6 0 5 4 9 9 9 5 0 11 11 13 25 6 29 0 32 -18 8 -13 -17
-15 -17 -28 0 -14 18 -15 18 -25 0 -6 -10 -11 -15 -11 -10 -1 27 -24 49 -44
41 -9 -3 -16 -1 -16 5 0 6 -7 11 -15 11 -8 0 -15 4 -15 10 0 5 10 9 21 7 12
-1 23 3 25 8 2 6 -9 11 -25 12 -20 1 -30 -3 -33 -15 -3 -10 -24 -23 -54 -31
-27 -8 -55 -16 -61 -19 -8 -2 -13 4 -13 14 0 14 -5 12 -28 -12 -16 -16 -31
-37 -35 -46 -3 -10 -11 -18 -18 -18 -6 0 -2 15 10 36 12 19 19 40 16 45 -4 5
-1 9 4 9 6 0 11 8 11 18 -1 16 -2 15 -15 -2 -8 -10 -12 -23 -9 -28 3 -4 -4
-20 -15 -34 -12 -15 -21 -32 -21 -39 0 -6 -9 -20 -20 -30 -10 -9 -19 -20 -19
-24 1 -3 -2 -16 -6 -28 -8 -25 -21 -30 -28 -10 -3 7 -9 2 -16 -13 -7 -14 -18
-36 -26 -50 -8 -14 -20 -51 -26 -83 -11 -52 -14 -58 -33 -53 -18 4 -21 0 -23
-27 -2 -17 -7 -33 -13 -35 -5 -2 -10 -10 -10 -19 0 -8 -7 -21 -15 -29 -8 -8
-12 -21 -9 -28 3 -8 -2 -25 -10 -38 -9 -14 -13 -27 -10 -31 3 -3 -2 -26 -11
-52 -13 -33 -15 -51 -8 -67 9 -21 10 -21 26 12 22 42 21 43 -5 29 -23 -12 -23
-12 -5 9 11 11 25 18 32 16 7 -3 19 4 27 14 10 16 25 20 61 20 50 -1 69 -11
40 -22 -15 -6 -15 -8 -3 -16 13 -8 13 -11 1 -22 -11 -10 -14 -10 -18 0 -3 6
-9 9 -14 6 -6 -3 -17 0 -25 7 -8 6 -18 8 -22 4 -4 -4 -1 -10 6 -12 10 -4 10
-9 -3 -23 -11 -13 -13 -20 -5 -25 8 -5 6 -11 -5 -19 -15 -10 -14 -14 5 -36
l22 -25 -35 -3 c-20 -2 -41 -10 -47 -18 -7 -8 -17 -14 -23 -14 -8 0 -7 4 0 11
9 9 8 15 -2 26 -8 7 -12 21 -9 31 3 9 -2 6 -10 -8 -8 -14 -15 -35 -16 -47 0
-12 -5 -25 -11 -29 -7 -4 -9 -20 -6 -39 3 -21 0 -40 -8 -52 -13 -17 -14 -16
-14 12 0 57 47 315 66 365 3 8 7 20 9 25 26 98 119 325 171 418 18 33 33 63
33 67 0 5 4 10 9 12 5 2 20 26 34 55 15 28 50 82 79 120 28 37 72 95 97 128
81 106 181 211 296 309 77 66 131 106 144 106 5 0 14 6 18 14 12 20 225 156
246 156 9 0 17 3 17 8 0 4 29 20 65 36 49 21 68 26 79 17 17 -14 62 -5 123 25
58 28 67 29 54 6z m42 6 c5 -16 -13 -59 -23 -53 -9 6 0 65 10 65 5 0 10 -6 13
-12z m321 4 c2 -4 1 -14 -3 -21 -6 -9 -10 -7 -14 8 -5 20 7 29 17 13z m124
-26 c-7 -8 -15 -12 -17 -11 -5 6 10 25 20 25 5 0 4 -6 -3 -14z m-55 -21 c-3
-9 -8 -14 -10 -11 -3 3 -2 9 2 15 9 16 15 13 8 -4z m-88 -25 c-3 -5 -11 -10
-16 -10 -6 0 -7 5 -4 10 3 6 11 10 16 10 6 0 7 -4 4 -10z m-78 -50 c1 -17 -2
-30 -7 -30 -12 0 -23 37 -15 50 11 18 20 10 22 -20z m188 0 c-3 -5 -11 -10
-16 -10 -6 0 -7 5 -4 10 3 6 11 10 16 10 6 0 7 -4 4 -10z m-235 -110 c0 -5 -7
-10 -15 -10 -8 0 -15 5 -15 10 0 6 7 10 15 10 8 0 15 -4 15 -10z m-105 -20 c3
-5 -1 -10 -9 -10 -9 0 -16 -4 -16 -10 0 -5 -5 -10 -10 -10 -7 0 -7 6 0 20 12
22 25 26 35 10z m101 -37 c-10 -10 -19 5 -10 18 6 11 8 11 12 0 2 -7 1 -15 -2
-18z m-70 -2 c-17 -11 -34 -17 -39 -14 -5 3 3 12 19 19 43 19 53 16 20 -5z
m-135 -58 c-12 -20 -14 -14 -5 12 4 9 9 14 11 11 3 -2 0 -13 -6 -23z m69 23
c0 -3 -4 -8 -10 -11 -5 -3 -10 -1 -10 4 0 6 5 11 10 11 6 0 10 -2 10 -4z
m-1080 -10 c0 -3 -4 -8 -10 -11 -5 -3 -10 -1 -10 4 0 6 5 11 10 11 6 0 10 -2
10 -4z m1137 -2 c-3 -3 -12 -4 -19 -1 -8 3 -5 6 6 6 11 1 17 -2 13 -5z m-110
-46 c-3 -8 -6 -5 -6 6 -1 11 2 17 5 13 3 -3 4 -12 1 -19z m23 -28 c0 -5 -5
-10 -11 -10 -5 0 -7 5 -4 10 3 6 8 10 11 10 2 0 4 -4 4 -10z m240 0 c0 -5 -4
-10 -10 -10 -5 0 -10 5 -10 10 0 6 5 10 10 10 6 0 10 -4 10 -10z m-1235 -30
c-10 -11 -20 -18 -23 -15 -7 6 18 35 31 35 5 0 2 -9 -8 -20z m859 11 c3 -5 -1
-12 -10 -15 -20 -8 -29 -1 -19 13 8 13 22 14 29 2z m56 -1 c0 -5 -4 -10 -9
-10 -5 0 -7 -8 -4 -19 3 -13 -6 -24 -32 -40 -40 -23 -55 -21 -52 8 1 13 8 17
27 15 20 -2 28 3 39 26 12 29 31 41 31 20z m110 -4 c0 -3 -4 -8 -10 -11 -5 -3
-10 -1 -10 4 0 6 5 11 10 11 6 0 10 -2 10 -4z m-10 -46 c0 -5 -4 -10 -10 -10
-5 0 -10 5 -10 10 0 6 5 10 10 10 6 0 10 -4 10 -10z m60 0 c0 -5 -4 -10 -10
-10 -5 0 -10 5 -10 10 0 6 5 10 10 10 6 0 10 -4 10 -10z m-183 -48 c-24 -26
-21 -41 7 -48 24 -6 27 -34 4 -34 -5 0 -6 5 -3 10 5 9 -15 15 -37 11 -4 0 -5
6 -2 14 4 9 0 15 -10 15 -9 0 -16 -8 -16 -19 0 -10 -6 -21 -13 -24 -9 -3 -12
5 -9 30 4 30 8 34 27 31 14 -3 26 2 34 14 6 10 16 18 23 18 6 0 4 -7 -5 -18z
m245 -4 c-7 -7 -12 -8 -12 -2 0 14 12 26 19 19 2 -3 -1 -11 -7 -17z m-212 -13
c0 -8 -7 -15 -15 -15 -26 0 -18 20 13 29 1 1 2 -6 2 -14z m-125 -35 c-9 -14
-25 5 -25 30 0 12 3 12 16 -2 9 -9 13 -21 9 -28z m-904 11 c-8 -5 -11 -16 -8
-26 4 -9 3 -14 -3 -10 -6 4 -17 -1 -26 -9 -8 -9 -12 -16 -9 -16 4 0 -7 -13
-25 -30 -34 -32 -53 -39 -48 -16 6 27 92 116 113 116 15 0 17 -2 6 -9z m1269
-13 c0 -16 -3 -19 -11 -11 -6 6 -8 16 -5 22 11 17 16 13 16 -11z m-117 -29
c-4 -13 -9 -17 -16 -10 -12 12 -1 45 12 37 5 -3 7 -15 4 -27z m-174 -36 c1 -7
-4 -13 -10 -13 -6 0 -9 6 -6 14 3 8 1 16 -5 18 -7 3 -8 10 -3 18 7 11 10 10
16 -6 4 -10 8 -25 8 -31z m196 7 c-10 -11 -15 -23 -12 -26 10 -10 -13 -45 -25
-38 -7 4 -5 10 5 15 9 5 13 17 10 29 -3 12 1 22 10 26 10 3 13 12 10 22 -5 14
-3 15 7 5 11 -10 10 -16 -5 -33z m-128 10 c-1 -11 -5 -20 -9 -20 -4 0 -8 9 -8
20 0 11 4 20 9 20 6 0 9 -9 8 -20z m63 4 c0 -8 -5 -12 -10 -9 -6 4 -8 11 -5
16 9 14 15 11 15 -7z m-25 -34 c-5 -8 -11 -8 -17 -2 -6 6 -7 16 -3 22 5 8 11
8 17 2 6 -6 7 -16 3 -22z m-151 5 c3 -9 0 -15 -8 -15 -7 0 -19 7 -26 15 -10
12 -9 15 8 15 11 0 22 -7 26 -15z m286 -46 c-7 -11 -14 -18 -17 -15 -3 3 0 12
7 21 18 21 23 19 10 -6z m-1330 -10 c0 -26 -22 -50 -41 -44 -14 5 -17 3 -13
-9 5 -12 2 -15 -10 -10 -19 7 -21 -7 -4 -24 9 -9 9 -12 0 -12 -7 0 -12 5 -12
11 0 5 -4 8 -9 4 -5 -3 -12 -1 -16 5 -3 5 -1 10 4 10 6 0 11 6 11 13 0 8 11
19 25 25 14 7 28 19 31 27 7 17 34 21 34 4z m1477 -11 c-3 -8 -6 -5 -6 6 -1
11 2 17 5 13 3 -3 4 -12 1 -19z m-204 -8 c-5 -19 -23 -29 -23 -12 0 7 20 32
26 32 1 0 0 -9 -3 -20z m77 -5 c0 -8 -7 -15 -15 -15 -16 0 -20 12 -8 23 11 12
23 8 23 -8z m-277 -25 c-3 -11 -9 -20 -14 -20 -14 0 -11 28 4 33 6 3 13 6 14
6 0 1 -1 -8 -4 -19z m592 -53 c-9 -30 -22 -58 -30 -61 -20 -7 -19 21 0 32 14
7 21 30 24 87 1 13 4 16 12 8 7 -7 6 -27 -6 -66z m-431 32 c15 -30 15 -31 -4
-26 -13 3 -20 0 -20 -9 0 -8 -4 -14 -10 -14 -15 0 -12 16 5 30 18 15 19 37 3
43 -9 4 -9 6 -1 6 6 1 19 -13 27 -30z m216 6 c-7 -8 -17 -15 -22 -15 -6 0 -5
7 2 15 7 8 17 15 22 15 6 0 5 -7 -2 -15z m-70 -25 c0 -5 -5 -10 -11 -10 -5 0
-7 5 -4 10 3 6 8 10 11 10 2 0 4 -4 4 -10z m-1501 -42 c-13 -18 -25 -26 -27
-19 -4 13 25 51 40 51 5 0 -1 -14 -13 -32z m1441 17 c0 -24 22 -42 45 -37 19
4 19 3 4 -13 -14 -14 -21 -15 -38 -6 -11 7 -21 18 -21 26 0 19 -14 19 -30 0
-7 -9 -15 -13 -18 -10 -6 5 38 52 51 54 4 1 7 -6 7 -14z m-300 -5 c0 -5 -4
-10 -10 -10 -5 0 -10 5 -10 10 0 6 5 10 10 10 6 0 10 -4 10 -10z m-1100 -9 c0
-6 -4 -13 -10 -16 -5 -3 -10 1 -10 9 0 9 5 16 10 16 6 0 10 -4 10 -9z m1308
-29 c-19 -23 -26 -27 -40 -18 -24 14 -23 30 1 23 12 -3 22 1 25 9 3 8 13 14
21 14 14 0 12 -5 -7 -28z m-228 8 c0 -5 -13 -24 -30 -42 -25 -28 -29 -30 -30
-14 0 11 10 30 22 43 23 24 38 30 38 13z m420 -9 c0 -19 -26 -48 -35 -39 -6 6
18 58 28 58 4 0 7 -8 7 -19z m-394 -16 c-11 -8 -22 -12 -25 -9 -6 6 19 24 34
24 6 -1 1 -7 -9 -15z m514 11 c0 -3 -4 -8 -10 -11 -5 -3 -10 -1 -10 4 0 6 5
11 10 11 6 0 10 -2 10 -4z m-250 -21 c-10 -12 -9 -15 4 -15 10 0 15 -4 12 -9
-11 -17 27 -21 45 -5 13 12 19 13 19 5 0 -7 -10 -21 -22 -32 -18 -14 -20 -18
-7 -19 9 0 22 7 29 15 14 17 34 9 26 -11 -3 -9 0 -11 12 -7 13 4 12 2 -3 -10
-25 -20 -36 -21 -29 -3 4 10 -3 13 -26 11 -17 -1 -33 -5 -36 -8 -3 -3 -11 -4
-18 -1 -7 3 -12 -4 -12 -16 0 -11 6 -20 13 -20 7 0 13 -4 13 -10 0 -16 -15
-12 -35 10 -10 11 -15 26 -11 36 4 10 2 20 -4 24 -7 4 -5 12 6 21 16 12 17 12
12 -3 -6 -15 18 -35 29 -25 7 8 -9 36 -25 42 -21 8 -63 -32 -44 -44 18 -11
-12 -36 -33 -27 -18 6 -21 30 -3 24 7 -3 21 11 31 30 24 44 39 61 56 62 11 0
11 -3 1 -15z m-1460 -6 c0 -6 6 -9 14 -6 8 3 17 3 20 0 9 -9 -27 -63 -41 -63
-17 0 -17 22 0 39 10 11 10 14 0 18 -15 6 -17 23 -3 23 6 0 10 -5 10 -11z
m1764 -15 c3 -8 2 -12 -4 -9 -6 3 -10 10 -10 16 0 14 7 11 14 -7z m-253 -91
c12 -15 12 -16 -4 -10 -10 4 -23 7 -28 7 -6 0 -7 5 -4 10 9 15 21 12 36 -7z
m129 8 c0 -11 -26 -22 -34 -14 -12 12 -5 23 14 23 11 0 20 -4 20 -9z m-1273
-7 c-3 -3 -12 -4 -19 -1 -8 3 -5 6 6 6 11 1 17 -2 13 -5z m1219 -30 c-5 -18
-3 -24 4 -19 8 5 10 -2 8 -21 -2 -19 -13 -33 -36 -46 -32 -18 -33 -18 -22 2 6
11 8 25 4 31 -4 8 0 7 15 0 18 -10 21 -9 21 9 0 11 -4 20 -9 20 -5 0 -4 11 2
25 15 32 21 32 13 -1z m2494 16 c0 -5 -4 -10 -9 -10 -6 0 -13 5 -16 10 -3 6 1
10 9 10 9 0 16 -4 16 -10z m-4150 -20 c0 -19 -11 -26 -23 -14 -8 8 3 34 14 34
5 0 9 -9 9 -20z m1610 -5 c0 -8 -7 -15 -15 -15 -26 0 -18 20 13 29 1 1 2 -6 2
-14z m110 -5 c0 -5 -4 -10 -10 -10 -5 0 -10 5 -10 10 0 6 5 10 10 10 6 0 10
-4 10 -10z m2294 -9 c3 -5 -6 -12 -21 -16 -14 -3 -45 -22 -68 -41 -35 -29 -44
-43 -50 -80 -7 -48 -13 -52 -20 -15 -5 27 26 100 53 125 12 10 36 22 54 26 46
11 46 11 52 1z m-2250 -36 c-4 -8 -10 -15 -15 -15 -4 0 -6 7 -3 15 4 8 10 15
15 15 4 0 6 -7 3 -15z m2496 -133 c0 -61 -4 -79 -26 -115 -26 -41 -42 -57 -56
-57 -14 0 -8 28 7 34 8 3 15 13 15 23 0 10 7 36 15 58 8 22 14 63 15 91 0 28
3 54 7 57 14 15 23 -20 23 -91z m-3934 75 c-10 -7 -30 -22 -44 -34 -29 -26
-32 -28 -32 -10 0 15 59 57 80 56 11 0 11 -3 -4 -12z m1239 2 c-4 -5 1 -19 11
-30 10 -11 12 -19 6 -19 -7 0 -12 -9 -12 -19 0 -25 -12 -32 -30 -20 -13 8 -12
12 5 24 16 13 17 19 8 34 -9 14 -9 21 0 30 14 14 20 14 12 0z m67 -51 c-9 -9
-12 -7 -12 12 0 19 3 21 12 12 9 -9 9 -15 0 -24z m98 13 c0 -6 -4 -13 -10 -16
-5 -3 -10 1 -10 9 0 9 5 16 10 16 6 0 10 -4 10 -9z m2200 -11 c0 -5 -4 -10 -9
-10 -6 0 -13 5 -16 10 -3 6 1 10 9 10 9 0 16 -4 16 -10z m226 -5 c11 -11 14
-25 9 -48 -11 -50 -22 -64 -70 -93 -36 -21 -53 -25 -80 -20 -20 4 -33 11 -29
17 3 5 14 7 25 4 23 -8 104 39 126 72 13 20 14 31 6 54 -13 32 -9 36 13 14z
m-2686 -40 c0 -3 -4 -4 -10 0 -5 3 -16 -8 -25 -26 -19 -35 -31 -32 -21 5 3 14
6 29 5 32 0 4 5 10 12 14 11 8 39 -10 39 -25z m200 27 c0 -5 -11 -14 -25 -20
-23 -11 -24 -10 -13 8 13 20 38 28 38 12z m2616 -49 c-10 -10 -19 5 -10 18 6
11 8 11 12 0 2 -7 1 -15 -2 -18z m-2681 -3 c-6 -20 9 -29 18 -10 3 6 4 5 3 -2
-2 -7 -11 -13 -22 -13 -10 0 -20 -8 -22 -18 -4 -18 -5 -18 -23 -1 -21 19 -25
44 -8 44 6 0 8 -8 5 -17 -5 -15 -4 -15 9 1 8 11 15 16 15 10 0 -5 5 -1 11 9
14 23 22 22 14 -3z m2285 -10 c6 -11 8 -20 6 -20 -3 0 -10 9 -16 20 -6 11 -8
20 -6 20 3 0 10 -9 16 -20z m-3358 -27 c-11 -57 -66 -104 -121 -103 -13 1 -13
3 3 11 14 9 16 13 5 20 -10 6 -6 11 14 18 16 6 35 11 43 11 8 0 22 16 31 35
20 42 32 46 25 8z m1158 18 c0 -12 -20 -25 -27 -18 -7 7 6 27 18 27 5 0 9 -4
9 -9z m-180 -36 c-16 -19 -40 -19 -40 -2 0 16 43 39 48 25 2 -5 -2 -15 -8 -23z
m300 19 c0 -8 -4 -12 -10 -9 -5 3 -10 10 -10 16 0 5 5 9 10 9 6 0 10 -7 10
-16z m-1250 -7 c0 -7 -7 -22 -15 -33 -13 -17 -14 -16 -4 14 11 33 19 41 19 19z
m1074 -22 c3 -8 1 -15 -4 -15 -6 0 -10 7 -10 15 0 8 2 15 4 15 2 0 6 -7 10
-15z m-1754 -15 c0 -5 -4 -10 -10 -10 -5 0 -10 5 -10 10 0 6 5 10 10 10 6 0
10 -4 10 -10z m1649 -16 c-6 -8 -8 -14 -3 -14 11 0 -29 -29 -40 -30 -5 0 -2 8
6 18 8 9 18 25 21 35 4 10 12 15 17 12 8 -5 7 -11 -1 -21z m74 12 c3 -8 -3
-24 -14 -37 -10 -12 -19 -17 -19 -11 0 6 5 14 10 17 16 10 12 25 -5 19 -8 -4
-15 -2 -15 3 0 25 35 32 43 9z m-1537 -35 c-6 -2 -19 -10 -28 -19 -11 -9 -18
-11 -18 -4 0 6 10 17 22 23 16 9 19 14 9 17 -11 4 -11 6 0 13 9 5 16 3 20 -9
4 -9 1 -19 -5 -21z m4109 -21 c4 -6 -7 -10 -27 -9 -27 0 -30 2 -13 9 27 12 33
12 40 0z m-2742 -12 c3 -10 7 -10 20 1 10 7 17 9 17 3 0 -6 -14 -22 -31 -36
-24 -21 -27 -26 -12 -26 13 0 8 -6 -15 -20 -39 -24 -49 -26 -28 -4 18 17 21
34 7 34 -14 0 -8 34 9 47 19 16 27 16 33 1z m177 2 c0 -5 -5 -10 -11 -10 -5 0
-7 5 -4 10 3 6 8 10 11 10 2 0 4 -4 4 -10z m-1550 -35 c0 -7 -8 -18 -17 -24
-14 -8 -15 -12 -4 -25 9 -11 10 -16 2 -16 -6 0 -11 -7 -11 -15 0 -9 -9 -15
-22 -15 -19 0 -20 2 -6 18 9 9 18 34 22 55 7 36 36 55 36 22z m1308 3 c-6 -18
-28 -21 -28 -4 0 9 7 16 16 16 9 0 14 -5 12 -12z m232 2 c0 -5 -4 -10 -10 -10
-5 0 -10 5 -10 10 0 6 5 10 10 10 6 0 10 -4 10 -10z m-41 -27 c-8 -10 -16 -20
-19 -23 -3 -3 -14 -18 -24 -33 -9 -16 -20 -26 -23 -23 -6 6 64 96 74 96 3 0
-1 -8 -8 -17z m-289 -5 c-1 -20 -23 -44 -47 -50 -25 -7 -31 6 -10 19 8 4 16
16 20 26 7 19 37 23 37 5z m210 -25 c0 -20 -3 -24 -11 -16 -7 7 -9 19 -6 27
10 24 17 19 17 -11z m-130 -13 c-12 -23 -30 -27 -30 -7 0 17 10 27 27 27 11 0
11 -5 3 -20z m90 5 c0 -2 -10 -10 -22 -16 -21 -11 -22 -11 -9 4 13 16 31 23
31 12z m-1355 -25 c-20 -22 -31 -20 -22 5 4 8 14 15 23 15 16 0 16 -2 -1 -20z
m991 -64 c-6 -19 -13 -33 -17 -30 -4 2 -9 -2 -12 -10 -4 -9 2 -12 19 -10 13 1
24 -2 24 -7 0 -5 8 -9 17 -9 15 0 14 -2 -3 -15 -25 -19 -40 -19 -24 0 10 12
10 15 -1 17 -8 0 -21 2 -29 3 -8 1 -25 -8 -37 -19 -13 -10 -26 -17 -29 -13 -4
4 4 15 17 26 13 11 21 20 18 21 -4 0 57 73 67 79 1 1 -4 -14 -10 -33z m474 24
c0 -5 -5 -10 -11 -10 -5 0 -7 5 -4 10 3 6 8 10 11 10 2 0 4 -4 4 -10z m-290
-29 c0 -5 -7 -11 -14 -14 -10 -4 -13 -1 -9 9 6 15 23 19 23 5z m157 -14 c-2
-6 -12 -15 -22 -21 -11 -6 -26 -17 -35 -25 -13 -13 -15 -12 -18 3 -3 12 -10
15 -23 11 -11 -4 -19 -2 -19 5 0 9 11 10 36 6 30 -6 35 -5 34 11 -3 29 -1 31
25 25 14 -2 24 -9 22 -15z m-1347 -16 c0 -5 -7 -12 -16 -15 -14 -5 -15 -4 -4
9 14 17 20 19 20 6z m1080 -1 c0 -5 -5 -10 -11 -10 -5 0 -7 5 -4 10 3 6 8 10
11 10 2 0 4 -4 4 -10z m-499 -13 c0 -4 -10 -25 -22 -45 -18 -30 -23 -34 -27
-18 -2 10 2 22 9 27 7 4 10 11 6 15 -9 9 13 36 25 32 5 -2 9 -7 9 -11z m645
-34 c-7 -7 -36 23 -36 38 0 7 9 3 21 -10 12 -12 19 -25 15 -28z m144 40 c0
-17 -19 -37 -27 -29 -4 5 -2 11 5 13 6 3 10 9 6 14 -3 5 0 9 5 9 6 0 11 -3 11
-7z m-840 -11 c0 -5 -18 -20 -40 -35 -50 -32 -52 -22 -3 16 39 29 43 31 43 19z
m597 2 c-3 -3 -12 -4 -19 -1 -8 3 -5 6 6 6 11 1 17 -2 13 -5z m-1117 -8 c0 -3
-4 -8 -10 -11 -5 -3 -10 -1 -10 4 0 6 5 11 10 11 6 0 10 -2 10 -4z m609 -13
c-39 -50 -63 -61 -27 -13 12 17 26 30 31 30 5 0 3 -8 -4 -17z m30 -45 c-11
-15 -17 -32 -14 -38 3 -5 -1 -10 -10 -10 -12 0 -15 6 -10 23 4 12 8 26 9 31 0
5 8 17 16 26 24 26 31 0 9 -32z m127 37 c-3 -8 4 -21 15 -29 14 -9 17 -16 9
-21 -6 -4 -9 -13 -7 -19 4 -9 -3 -11 -21 -8 -22 4 -23 6 -9 17 19 14 24 40 5
29 -7 -4 -8 -3 -4 4 4 7 2 12 -5 12 -8 0 -8 4 1 15 16 19 24 19 16 0z m-772
-22 c5 -11 2 -13 -10 -9 -12 5 -15 2 -10 -11 5 -16 5 -16 -8 0 -8 11 -12 25
-9 32 6 17 29 9 37 -12z m811 17 c-3 -5 -11 -10 -16 -10 -6 0 -7 5 -4 10 3 6
11 10 16 10 6 0 7 -4 4 -10z m273 -8 c2 -7 -2 -10 -12 -6 -9 3 -16 11 -16 16
0 13 23 5 28 -10z m-114 -3 c-3 -6 0 -15 7 -20 7 -4 10 -12 5 -16 -5 -4 -11
-2 -13 5 -6 16 -18 15 -38 -4 -12 -13 -14 -19 -4 -24 7 -5 2 -7 -14 -7 -14 1
-23 5 -20 10 2 4 -3 7 -11 7 -9 0 -16 5 -16 10 0 6 7 10 15 10 8 0 15 -4 15
-10 0 -17 18 -11 25 9 3 10 15 23 28 29 29 14 29 14 21 1z m-459 -9 c-3 -5
-11 -10 -16 -10 -6 0 -7 5 -4 10 3 6 11 10 16 10 6 0 7 -4 4 -10z m-185 -15
c0 -8 -2 -15 -4 -15 -2 0 -12 -3 -21 -7 -15 -5 -16 -3 -6 15 13 25 31 29 31 7z
m50 5 c0 -5 -10 -10 -22 -10 -19 0 -20 2 -8 10 19 13 30 13 30 0z m677 4 c-3
-3 -12 -4 -19 -1 -8 3 -5 6 6 6 11 1 17 -2 13 -5z m-804 -10 c8 -9 -26 -41
-40 -37 -8 3 -6 10 5 24 17 20 25 23 35 13z m207 -19 c19 -21 21 -25 7 -25 -9
0 -17 7 -17 15 0 8 -6 15 -14 15 -8 0 -16 -7 -20 -15 -7 -18 -26 -20 -26 -2 0
7 10 17 23 23 12 7 22 12 23 13 0 0 11 -10 24 -24z m-425 4 c11 -17 -1 -21
-15 -4 -8 9 -8 15 -2 15 6 0 14 -5 17 -11z m79 5 c18 -7 12 -24 -10 -24 -8 0
-14 7 -14 15 0 17 2 18 24 9z m396 -4 c0 -5 -5 -10 -11 -10 -5 0 -7 5 -4 10 3
6 8 10 11 10 2 0 4 -4 4 -10z m935 0 c3 -5 1 -10 -4 -10 -6 0 -11 5 -11 10 0
6 2 10 4 10 3 0 8 -4 11 -10z m-366 -36 c-29 -31 -31 -35 -12 -30 13 4 31 2
40 -4 16 -10 15 -10 -4 -5 -17 5 -30 -3 -57 -32 -20 -21 -36 -33 -36 -27 0 6
-13 10 -30 9 -36 -2 -37 1 -7 26 15 12 17 18 8 19 -8 0 -23 -8 -33 -17 -17
-15 -18 -15 -13 0 4 9 17 19 28 23 12 3 30 16 40 28 15 19 15 16 -2 -26 l-20
-47 22 1 c25 2 47 16 47 30 0 6 -7 7 -16 4 -10 -4 -6 5 10 25 14 17 26 37 26
45 0 8 10 14 22 14 20 0 19 -3 -13 -36z m-539 16 c0 -5 -7 -10 -16 -10 -8 0
-12 5 -9 10 3 6 10 10 16 10 5 0 9 -4 9 -10z m605 0 c-3 -5 -11 -10 -16 -10
-6 0 -7 5 -4 10 3 6 11 10 16 10 6 0 7 -4 4 -10z m60 -8 c-3 -3 -11 0 -18 7
-9 10 -8 11 6 5 10 -3 15 -9 12 -12z m-235 -2 c0 -5 -5 -10 -11 -10 -5 0 -7 5
-4 10 3 6 8 10 11 10 2 0 4 -4 4 -10z m200 0 c0 -5 -5 -10 -11 -10 -5 0 -7 5
-4 10 3 6 8 10 11 10 2 0 4 -4 4 -10z m-1160 -8 c0 -4 -10 -13 -22 -21 -23
-14 -23 -14 -4 8 20 22 26 25 26 13z m485 -21 c-3 -6 -14 -10 -23 -10 -15 1
-15 2 1 6 9 2 17 9 17 15 0 6 3 9 6 5 3 -3 3 -10 -1 -16z m433 -17 c9 -5 -13
-34 -26 -34 -12 0 -13 3 -4 12 17 17 15 28 -4 28 -8 0 -12 5 -9 10 5 8 12 7
23 -2 10 -7 18 -13 20 -14z m-554 -14 c-6 -6 -10 -3 -10 10 0 13 4 16 10 10 7
-7 7 -13 0 -20z m-459 2 c-3 -3 -11 0 -18 7 -9 10 -8 11 6 5 10 -3 15 -9 12
-12z m46 0 c-7 -2 -18 1 -23 6 -8 8 -4 9 13 5 13 -4 18 -8 10 -11z m245 -4 c4
4 2 -1 -5 -11 -11 -14 -16 -15 -22 -5 -13 20 -10 32 4 19 8 -6 18 -7 23 -3z
m120 -3 c9 -8 13 -19 10 -24 -4 -5 -3 -11 1 -14 5 -2 1 -2 -7 1 -20 5 -43 10
-54 11 -9 1 22 41 31 41 3 0 11 -7 19 -15z m366 -7 c-7 -7 -12 -8 -12 -2 0 14
12 26 19 19 2 -3 -1 -11 -7 -17z m518 18 c0 -3 -4 -8 -10 -11 -5 -3 -10 -1
-10 4 0 6 5 11 10 11 6 0 10 -2 10 -4z m-645 -16 c-3 -5 -12 -10 -18 -10 -7 0
-6 4 3 10 19 12 23 12 15 0z m165 0 c0 -5 -5 -10 -11 -10 -5 0 -7 5 -4 10 3 6
8 10 11 10 2 0 4 -4 4 -10z m369 -16 c-6 -8 -17 -14 -23 -14 -6 0 -5 4 3 9 7
5 11 14 7 20 -5 7 -1 9 9 5 12 -5 13 -9 4 -20z m64 13 c5 -13 -15 -47 -27 -47
-4 0 -3 8 2 18 5 9 7 23 5 30 -6 16 13 16 20 -1z m117 3 c0 -5 -5 -10 -11 -10
-5 0 -7 5 -4 10 3 6 8 10 11 10 2 0 4 -4 4 -10z m-1230 -4 c0 -3 -4 -8 -10
-11 -5 -3 -10 -1 -10 4 0 6 5 11 10 11 6 0 10 -2 10 -4z m60 -6 c0 -5 -4 -10
-9 -10 -6 0 -13 5 -16 10 -3 6 1 10 9 10 9 0 16 -4 16 -10z m130 2 c0 -4 -9
-13 -20 -20 -24 -15 -26 -9 -4 12 17 18 24 20 24 8z m260 -2 c0 -5 -4 -10 -10
-10 -5 0 -10 5 -10 10 0 6 5 10 10 10 6 0 10 -4 10 -10z m115 0 c-3 -5 -11
-10 -16 -10 -6 0 -7 5 -4 10 3 6 11 10 16 10 6 0 7 -4 4 -10z m265 0 c0 -5 -4
-10 -10 -10 -5 0 -10 5 -10 10 0 6 5 10 10 10 6 0 10 -4 10 -10z m582 -22 c-7
-7 -12 -8 -12 -2 0 14 12 26 19 19 2 -3 -1 -11 -7 -17z m-1064 -4 c-9 -10 -21
-13 -29 -8 -9 5 -8 9 7 15 31 12 39 10 22 -7z m-471 0 c-3 -3 -12 -4 -19 -1
-8 3 -5 6 6 6 11 1 17 -2 13 -5z m1403 2 c0 -3 -4 -8 -10 -11 -5 -3 -10 -1
-10 4 0 6 5 11 10 11 6 0 10 -2 10 -4z m-1365 -26 c-3 -5 -11 -10 -16 -10 -6
0 -7 5 -4 10 3 6 11 10 16 10 6 0 7 -4 4 -10z m460 0 c-3 -5 -16 -15 -28 -21
l-22 -12 20 21 c21 22 41 30 30 12z m-505 -4 c0 -3 -4 -8 -10 -11 -5 -3 -10
-1 -10 4 0 6 5 11 10 11 6 0 10 -2 10 -4z m-120 -18 c0 -7 -5 -20 -10 -28 -8
-12 -10 -9 -10 13 0 15 5 27 10 27 6 0 10 -6 10 -12z m400 2 c0 -5 -4 -10 -9
-10 -6 0 -13 5 -16 10 -3 6 1 10 9 10 9 0 16 -4 16 -10z m255 0 c3 -5 1 -10
-4 -10 -6 0 -11 5 -11 10 0 6 2 10 4 10 3 0 8 -4 11 -10z m209 -11 c-3 -5 -10
-7 -15 -3 -5 3 -7 10 -3 15 3 5 10 7 15 3 5 -3 7 -10 3 -15z m386 11 c0 -5 -7
-10 -15 -10 -8 0 -15 5 -15 10 0 6 7 10 15 10 8 0 15 -4 15 -10z m230 1 c0 -6
-4 -13 -10 -16 -5 -3 -10 1 -10 9 0 9 5 16 10 16 6 0 10 -4 10 -9z m-1410 -16
c-7 -9 -15 -13 -19 -10 -3 3 1 10 9 15 21 14 24 12 10 -5z m2146 -86 c1 -49
-2 -92 -7 -95 -5 -3 -9 0 -9 5 0 6 -4 11 -10 11 -5 0 -10 -6 -10 -13 0 -8 -12
-24 -26 -38 -14 -13 -42 -48 -61 -78 -40 -63 -72 -92 -92 -85 -12 4 -12 2 0
-13 8 -9 9 -14 2 -10 -6 4 -14 3 -18 -3 -3 -5 -13 -10 -21 -10 -13 0 -15 11
-10 63 7 69 20 122 34 140 5 7 12 23 15 37 3 14 24 45 46 69 41 45 151 124
161 115 3 -3 6 -46 6 -95z m-931 71 c-3 -5 -12 -10 -18 -10 -7 0 -6 4 3 10 19
12 23 12 15 0z m-1291 -144 c-1 -64 -5 -117 -10 -119 -11 -3 -17 143 -9 201
11 77 21 36 19 -82z m501 94 c-3 -5 -11 -10 -16 -10 -6 0 -7 5 -4 10 3 6 11
10 16 10 6 0 7 -4 4 -10z m-235 -4 c0 -3 -4 -8 -10 -11 -5 -3 -10 -1 -10 4 0
6 5 11 10 11 6 0 10 -2 10 -4z m783 -21 c-3 -9 -8 -14 -10 -11 -3 3 -2 9 2 15
9 16 15 13 8 -4z m-96 -1 c-3 -3 -12 -4 -19 -1 -8 3 -5 6 6 6 11 1 17 -2 13
-5z m-546 -43 c-8 -5 -20 -7 -28 -4 -21 8 -15 13 15 13 20 0 23 -3 13 -9z
m-47 -46 c-4 -8 -12 -15 -20 -15 -8 0 -11 6 -8 15 4 8 12 15 20 15 8 0 11 -6
8 -15z m2232 -67 c-8 -106 -28 -180 -61 -228 -15 -21 -26 -49 -25 -62 1 -13 1
-25 0 -28 -1 -3 -3 -24 -4 -47 -2 -50 -5 -54 -34 -46 -20 5 -22 12 -22 64 0
49 4 62 26 86 72 77 97 139 109 276 4 37 9 67 12 67 3 0 3 -37 -1 -82z m2311
25 c-3 -10 -5 -4 -5 12 0 17 2 24 5 18 2 -7 2 -21 0 -30z m-120 -10 c-3 -10
-5 -4 -5 12 0 17 2 24 5 18 2 -7 2 -21 0 -30z m-2917 6 c0 -11 -4 -18 -10 -14
-5 3 -7 12 -3 20 7 21 13 19 13 -6z m1005 -70 c4 -17 4 -33 1 -36 -9 -9 -12
-2 -19 35 -8 41 9 42 18 1z m-1028 -26 c-3 -10 -5 -4 -5 12 0 17 2 24 5 18 2
-7 2 -21 0 -30z m2930 -15 c-2 -13 -4 -5 -4 17 -1 22 1 32 4 23 2 -10 2 -28 0
-40z m-4552 32 c3 -5 -1 -10 -10 -10 -9 0 -13 5 -10 10 3 6 8 10 10 10 2 0 7
-4 10 -10z m-223 -32 c-2 -14 3 -32 11 -40 13 -12 13 -19 1 -47 -8 -18 -11
-37 -8 -42 3 -5 0 -9 -5 -9 -6 0 -12 15 -12 33 -1 17 -3 56 -4 85 -2 36 1 52
9 49 6 -2 10 -15 8 -29z m4908 -18 c0 -5 -2 -10 -4 -10 -3 0 -8 5 -11 10 -3 6
-1 10 4 10 6 0 11 -4 11 -10z m-3063 -22 c-3 -8 -6 -5 -6 6 -1 11 2 17 5 13 3
-3 4 -12 1 -19z m1028 -70 c-7 -89 -17 -127 -52 -193 -9 -16 -21 -40 -27 -52
-6 -13 -17 -23 -24 -23 -7 0 -10 -4 -7 -10 3 -5 -3 -10 -14 -10 -20 0 -30 25
-13 32 16 6 81 125 101 185 12 34 21 85 21 113 0 30 4 50 11 50 8 0 9 -28 4
-92z m-2035 78 c0 -3 -4 -8 -10 -11 -5 -3 -10 -1 -10 4 0 6 5 11 10 11 6 0 10
-2 10 -4z m1976 -33 c-10 -10 -19 5 -10 18 6 11 8 11 12 0 2 -7 1 -15 -2 -18z
m-50 -71 c-12 -11 -17 7 -9 34 l8 29 3 -28 c2 -16 1 -31 -2 -35z m-2913 13 c1
-5 -6 -11 -15 -13 -11 -2 -18 3 -18 13 0 17 30 18 33 0z m2947 -30 c-7 -14
-17 -25 -22 -25 -5 0 -1 14 7 31 9 17 19 28 22 25 4 -3 0 -17 -7 -31z m1907
-32 c-3 -10 -5 -2 -5 17 0 19 2 27 5 18 2 -10 2 -26 0 -35z m-4850 2 c0 -41
-13 -46 -27 -9 -13 33 -13 32 8 37 9 3 17 5 18 6 0 0 1 -15 1 -34z m164 -22
c7 -7 6 -13 0 -17 -12 -8 -18 2 -21 34 -3 36 2 49 7 20 3 -14 9 -30 14 -37z
m2720 -5 c-25 -72 -49 -118 -62 -118 -14 0 0 43 17 53 8 4 14 13 14 20 0 14
43 108 47 103 2 -1 -5 -27 -16 -58z m2023 -55 c-7 -59 -18 -124 -24 -143 -5
-19 -10 -48 -10 -64 0 -38 -99 -346 -111 -346 -5 0 -9 -10 -9 -23 0 -12 -16
-55 -35 -96 -19 -40 -35 -77 -35 -83 0 -6 -17 -38 -38 -72 -21 -34 -42 -68
-46 -76 -14 -31 -72 -120 -119 -181 -68 -91 -220 -268 -232 -269 -5 -1 -30
-25 -55 -54 -48 -55 -138 -132 -179 -155 l-26 -13 22 21 c12 11 25 21 28 21 4
0 70 64 148 143 146 146 304 338 310 375 2 12 7 25 12 29 4 5 5 2 1 -4 -4 -7
-5 -13 -3 -13 9 0 117 181 149 250 11 25 35 77 54 117 67 144 130 344 159 503
9 52 21 114 26 137 5 23 9 58 9 78 0 20 4 34 8 31 5 -3 3 -54 -4 -113z m133
65 c-3 -7 -5 -2 -5 12 0 14 2 19 5 13 2 -7 2 -19 0 -25z m-5041 -65 c2 -21 1
-24 -6 -13 -11 17 -14 57 -3 47 3 -4 8 -19 9 -34z m2905 10 c-12 -20 -14 -14
-5 12 4 9 9 14 11 11 3 -2 0 -13 -6 -23z m-21 -53 c-6 -12 -14 -20 -17 -17 -2
3 1 14 8 26 17 26 24 19 9 -9z m-2860 -14 c0 -3 -4 -8 -10 -11 -5 -3 -10 -1
-10 4 0 6 5 11 10 11 6 0 10 -2 10 -4z m2341 -20 c-8 -10 -9 -16 -1 -21 18
-11 11 -42 -12 -49 -35 -9 -88 -7 -88 3 0 5 -12 6 -27 2 -38 -10 -35 -34 6
-47 38 -12 64 -41 56 -63 -4 -10 -2 -11 7 -3 7 5 24 12 38 14 20 2 26 -2 28
-19 4 -24 -13 -32 -21 -10 -3 9 -16 6 -48 -12 -24 -13 -38 -18 -31 -10 18 19
15 29 -9 29 -19 0 -49 -21 -49 -34 0 -3 -12 -17 -26 -31 -18 -18 -25 -34 -21
-50 2 -14 0 -22 -4 -19 -5 3 -9 2 -10 -3 0 -4 -2 -18 -3 -31 l-3 -22 24 22
c25 23 29 15 12 -29 -6 -15 -13 -81 -16 -145 -4 -92 -2 -127 11 -165 20 -60
81 -123 151 -155 45 -21 64 -23 205 -23 142 0 159 2 208 24 64 29 125 96 146
159 19 60 25 227 8 244 -7 7 -12 25 -12 42 0 16 -11 49 -25 73 -14 23 -23 43
-20 43 17 0 45 -22 45 -35 0 -17 16 -20 25 -5 3 5 -3 20 -14 32 -12 12 -21 26
-21 31 0 5 -15 7 -33 6 -33 -3 -61 7 -53 20 3 4 1 13 -5 21 -7 12 -9 11 -9 -4
0 -18 -1 -18 -18 -3 -10 9 -32 22 -49 28 -17 6 -34 17 -37 25 -6 16 2 18 24 4
21 -13 50 17 50 52 0 24 -4 28 -29 28 -17 0 -33 5 -36 10 -4 7 -13 7 -26 0
-11 -6 -17 -15 -13 -21 8 -13 -24 -61 -36 -54 -6 4 -10 39 -10 79 l0 74 33 5
c20 3 67 -7 126 -26 78 -25 104 -39 150 -81 192 -173 234 -293 235 -667 l1
-217 -40 -58 c-22 -31 -51 -64 -65 -73 l-25 -15 20 24 c37 46 66 90 57 90 -4
0 -32 -27 -62 -61 -59 -66 -152 -121 -173 -100 -8 8 -6 11 6 11 9 0 17 4 17 8
0 5 17 18 38 30 43 24 122 98 122 114 0 6 11 21 24 33 20 19 24 34 30 115 4
62 2 97 -5 106 -6 8 -9 21 -5 29 3 9 0 15 -8 15 -8 0 -16 6 -19 14 -6 15 13
66 25 66 3 0 4 9 1 20 -4 16 -2 19 13 14 12 -3 15 -3 8 3 -6 4 -15 27 -19 50
-3 23 -13 44 -21 47 -8 3 -14 11 -13 18 3 23 -23 78 -37 78 -8 0 -14 5 -14 10
0 6 -5 10 -11 10 -5 0 -7 -5 -3 -11 3 -6 1 -15 -5 -19 -8 -4 -14 -52 -16 -138
-5 -125 -18 -191 -48 -230 -5 -7 -7 -15 -3 -19 3 -3 6 -1 6 5 0 7 5 12 10 12
6 0 6 -7 -2 -19 -6 -10 -18 -17 -25 -14 -8 3 -13 -3 -13 -17 0 -13 -4 -19 -11
-14 -6 3 -14 2 -18 -3 -15 -22 -70 -51 -121 -64 -32 -7 -108 -13 -180 -12
-130 1 -205 16 -278 55 -18 10 -42 18 -53 18 -19 0 -19 1 -5 16 18 17 21 28 7
19 -6 -3 -19 4 -29 16 -11 11 -23 16 -26 11 -3 -5 1 -15 9 -22 8 -7 15 -17 15
-23 0 -6 -10 0 -22 13 -13 14 -23 28 -23 33 0 4 -6 12 -14 16 -9 6 -10 11 -2
15 6 4 15 5 20 1 16 -10 25 17 9 29 -8 6 -17 16 -19 23 -3 8 -9 9 -18 3 -13
-7 -13 -11 -1 -25 15 -18 5 -30 -36 -41 -16 -4 -20 -11 -17 -27 5 -22 5 -22
-12 -2 -17 20 -17 14 1 -30 4 -11 0 -15 -15 -15 -14 0 -21 -6 -21 -18 0 -26
11 -34 27 -21 10 9 13 8 13 -6 0 -9 -8 -19 -18 -22 -20 -5 -22 -36 -4 -69 6
-12 8 -24 4 -28 -3 -4 2 -4 12 0 13 5 17 4 13 -3 -11 -18 73 -113 98 -113 19
0 65 -40 65 -56 0 -11 -5 -11 -27 -2 -60 26 -183 130 -183 155 0 7 -7 10 -15
7 -8 -4 -15 -13 -15 -22 0 -24 -44 44 -61 93 -19 56 -14 402 7 505 15 75 57
170 99 225 59 79 191 185 229 185 9 0 16 4 16 8 0 10 59 40 79 41 10 1 11 -2
2 -13z m2469 0 c0 -3 -4 -8 -10 -11 -5 -3 -10 -1 -10 4 0 6 5 11 10 11 6 0 10
-2 10 -4z m-4642 -17 c-2 -6 -8 -10 -13 -10 -5 0 -11 4 -13 10 -2 6 4 11 13
11 9 0 15 -5 13 -11z m4602 -136 c-11 -17 -11 -17 -6 0 3 10 6 24 7 30 0 9 2
9 5 0 3 -7 0 -20 -6 -30z m-2165 -19 c13 -5 14 -8 3 -15 -19 -13 -28 -11 -28
6 0 17 2 18 25 9z m-375 -71 c-1 -5 -13 -22 -28 -40 -24 -28 -28 -30 -29 -13
-1 11 2 20 7 20 5 0 12 9 15 20 6 19 36 29 35 13z m2497 -55 c-3 -8 -6 -5 -6
6 -1 11 2 17 5 13 3 -3 4 -12 1 -19z m-638 -128 c-12 -21 -28 -41 -36 -44 -8
-3 0 15 17 39 38 56 49 59 19 5z m121 0 c0 -5 -9 -10 -19 -10 -11 0 -27 -10
-35 -22 -9 -12 -19 -18 -23 -14 -5 4 5 19 20 32 29 25 57 32 57 14z m-3585
-72 c-11 -6 -37 -24 -57 -40 -33 -26 -38 -27 -38 -11 0 10 4 23 8 28 9 13 60
33 87 34 l20 0 -20 -11z m3775 -51 c0 -24 -11 -44 -44 -79 -45 -49 -68 -57
-99 -34 -16 12 -15 14 15 25 72 26 83 36 98 83 17 51 30 54 30 5z m-3890 24
c0 -6 -4 -13 -10 -16 -5 -3 -10 1 -10 9 0 9 5 16 10 16 6 0 10 -4 10 -9z
m2217 -13 c-3 -8 -6 -5 -6 6 -1 11 2 17 5 13 3 -3 4 -12 1 -19z m-1797 -53
c-7 -8 -17 -12 -23 -8 -6 4 -3 9 9 14 27 11 28 11 14 -6z m-390 -15 c0 -5 -4
-10 -10 -10 -5 0 -10 5 -10 10 0 6 5 10 10 10 6 0 10 -4 10 -10z m310 -41 c0
-51 -37 -111 -83 -132 -44 -21 -117 -22 -143 -1 -18 15 -18 15 9 11 18 -3 30
0 34 9 3 8 11 14 18 14 8 0 42 19 77 42 76 49 73 47 66 53 -3 3 -22 -6 -42
-20 -43 -29 -52 -31 -60 -9 -8 20 10 44 33 44 13 -1 13 -3 -3 -15 -11 -8 -15
-15 -9 -15 6 0 22 9 36 20 14 11 30 20 36 20 6 0 11 7 11 16 0 8 5 12 10 9 6
-3 10 -24 10 -46z m3600 -11 c-10 -36 -50 -83 -50 -58 0 16 50 103 56 98 2 -2
-1 -20 -6 -40z m-3915 22 c3 -5 1 -10 -4 -10 -6 0 -11 5 -11 10 0 6 2 10 4 10
3 0 8 -4 11 -10z m3515 -36 c0 -8 -4 -14 -10 -14 -5 0 -10 2 -10 4 0 2 -3 12
-6 20 -5 12 -2 15 10 10 9 -3 16 -12 16 -20z m-3490 3 c26 7 26 -9 0 -25 -11
-7 -20 -8 -20 -3 0 5 -2 15 -3 23 -2 7 -2 10 0 7 2 -4 13 -5 23 -2z m3840 -2
c-7 -9 -15 -13 -19 -10 -3 3 1 10 9 15 21 14 24 12 10 -5z m-305 -50 c16 -13
26 -27 23 -30 -4 -4 -16 3 -27 14 -12 12 -25 21 -31 21 -5 0 -10 5 -10 10 0
16 12 11 45 -15z m-3165 -10 c0 -9 -7 -27 -16 -40 -9 -14 -13 -25 -8 -25 15 0
-61 -72 -96 -90 -63 -32 -96 -34 -171 -10 -66 21 -99 43 -85 57 3 3 14 -1 25
-11 47 -43 194 -25 253 31 16 15 31 22 39 17 9 -5 11 -2 6 8 -3 9 3 24 14 34
10 9 19 23 19 31 0 7 5 13 10 13 6 0 10 -7 10 -15z m1580 1 c0 -3 -4 -8 -10
-11 -5 -3 -10 -1 -10 4 0 6 5 11 10 11 6 0 10 -2 10 -4z m1880 -7 c0 -6 -24
-19 -36 -19 -2 0 -4 6 -4 14 0 9 9 14 20 13 11 -1 20 -4 20 -8z m-1690 -7 c0
-13 -12 -22 -22 -16 -10 6 -1 24 13 24 5 0 9 -4 9 -8z m1476 -39 c-6 -6 -36 9
-36 18 0 5 9 4 20 -3 10 -7 18 -14 16 -15z m159 17 c-3 -5 -13 -10 -21 -10 -8
0 -12 5 -9 10 3 6 13 10 21 10 8 0 12 -4 9 -10z m-3801 -61 c-9 -15 -23 -10
-34 11 -10 18 -9 19 14 8 14 -6 23 -15 20 -19z m1581 1 c3 -5 2 -10 -4 -10 -5
0 -13 5 -16 10 -3 6 -2 10 4 10 5 0 13 -4 16 -10z m706 -73 c-13 -13 -26 -3
-16 12 3 6 11 8 17 5 6 -4 6 -10 -1 -17z m154 -247 c-3 -5 -11 -10 -16 -10 -6
0 -7 5 -4 10 3 6 11 10 16 10 6 0 7 -4 4 -10z m-136 -267 c-1 -128 -4 -186 -9
-163 -10 40 -13 337 -5 351 4 5 8 9 11 9 2 0 4 -89 3 -197z m-403 -23 c15 0
19 -16 6 -24 -11 -6 -43 30 -34 39 4 3 8 1 10 -4 2 -6 10 -11 18 -11z m1514
-84 c0 -3 -13 -14 -30 -26 -35 -25 -40 -20 -8 10 20 18 38 26 38 16z m-140
-104 c0 -14 -112 -74 -121 -65 -5 5 14 22 48 41 61 33 73 37 73 24z m-180
-107 c-13 -14 -31 -25 -39 -25 -11 1 -8 8 12 25 37 33 57 32 27 0z m-110 -44
c0 -9 -101 -64 -107 -57 -2 2 13 14 34 26 21 12 45 25 53 30 20 11 20 11 20 1z
m-145 -74 c-23 -14 -128 -48 -132 -43 -2 2 11 9 29 15 18 7 47 19 63 26 39 18
68 19 40 2z m-185 -61 c0 -11 -19 -15 -25 -6 -3 5 1 10 9 10 9 0 16 -2 16 -4z
m-1739 -47 c52 -22 119 -51 149 -64 30 -13 91 -33 135 -44 176 -44 252 -61
298 -67 26 -4 47 -11 47 -15 0 -11 -111 0 -127 12 -6 6 -37 12 -68 15 -31 2
-71 10 -88 18 -39 18 -61 24 -110 31 -42 7 -123 41 -132 55 -3 6 -14 10 -23
10 -10 0 -35 9 -57 20 -21 11 -53 24 -71 30 -27 9 -67 40 -51 40 2 0 47 -18
98 -41z m1322 -148 c-2 -2 -5 -2 -8 1 -8 7 -9 44 -5 93 3 34 4 29 9 -25 3 -36
5 -67 4 -69z m-6 -33 c-3 -8 -6 -5 -6 6 -1 11 2 17 5 13 3 -3 4 -12 1 -19z
m-457 -1359 c0 -5 -4 -9 -10 -9 -5 0 -10 7 -10 16 0 8 5 12 10 9 6 -3 10 -10
10 -16z"/>
<path d="M5280 9426 c0 -2 7 -7 16 -10 8 -3 12 -2 9 4 -6 10 -25 14 -25 6z"/>
<path d="M5215 3380 c-3 -5 -3 -36 1 -68 4 -31 7 -61 6 -66 -2 -5 4 -16 13
-26 11 -13 13 -19 4 -22 -17 -6 -21 -163 -18 -688 1 -250 1 -509 1 -575 -2
-221 -1 -303 4 -354 3 -36 1 -51 -8 -51 -6 0 -3 -7 8 -15 12 -9 14 -14 5 -15
-8 0 -11 -7 -9 -18 3 -10 2 -65 -2 -123 -3 -57 -4 -108 -1 -114 3 -5 4 -60 4
-122 -1 -78 2 -113 10 -113 6 0 4 -6 -5 -13 -9 -6 -19 -25 -23 -42 l-7 -30 30
37 c46 59 55 88 44 149 -6 30 -8 57 -6 61 3 4 5 112 4 240 -2 587 -1 850 5
868 4 11 3 20 -2 20 -4 0 -8 115 -7 255 1 141 -2 271 -6 290 -5 20 -4 33 1 29
11 -6 11 5 9 196 -1 80 -1 181 0 225 1 44 -2 77 -6 72 -4 -4 -15 0 -25 9 -11
10 -19 12 -24 4z"/>
<path d="M4858 2564 c2 -20 8 -32 12 -27 10 9 1 63 -9 63 -4 0 -5 -16 -3 -36z"/>
<path d="M5520 2489 c-62 -8 -46 -10 113 -14 116 -3 137 -1 127 10 -12 14
-146 17 -240 4z"/>
<path d="M5060 2440 c0 -5 5 -10 11 -10 5 0 7 5 4 10 -3 6 -8 10 -11 10 -2 0
-4 -4 -4 -10z"/>
<path d="M5560 1868 c0 -5 18 -8 40 -8 22 0 40 2 40 4 0 2 -18 6 -40 8 -22 2
-40 0 -40 -4z"/>
<path d="M5686 1871 c-3 -5 14 -11 38 -13 35 -2 42 0 34 9 -12 15 -64 17 -72
4z"/>
<path d="M5631 1546 c9 -8 138 -13 133 -5 -3 5 -35 9 -71 9 -37 0 -64 -2 -62
-4z"/>
<path d="M4935 8790 c-11 -4 -51 -13 -90 -20 -38 -7 -79 -19 -90 -26 -11 -8
-27 -14 -36 -14 -9 0 -38 -12 -65 -26 -27 -15 -71 -38 -99 -52 -27 -14 -79
-48 -115 -76 -36 -28 -84 -64 -108 -80 -52 -36 -155 -158 -205 -243 -39 -67
-97 -194 -97 -212 0 -6 -4 -11 -9 -11 -6 0 -13 -21 -16 -47 -3 -27 -13 -66
-20 -88 -15 -42 -36 -224 -28 -238 5 -9 57 0 83 14 70 38 338 133 460 162 173
42 217 50 380 64 148 13 211 14 407 4 128 -6 245 -16 259 -22 24 -9 104 -26
274 -60 30 -6 69 -17 86 -24 18 -8 49 -17 70 -21 22 -3 50 -12 64 -20 14 -7
48 -22 75 -34 28 -12 73 -33 100 -45 28 -13 57 -26 65 -30 8 -3 26 -12 40 -20
18 -11 26 -11 32 -2 8 13 1 108 -12 152 -5 17 -12 53 -16 80 -4 28 -13 66 -20
85 -7 19 -15 47 -16 61 -2 14 -11 38 -21 52 -9 14 -17 29 -17 33 0 37 -136
251 -213 335 -64 69 -196 176 -254 206 -29 15 -53 30 -53 33 0 4 -19 12 -42
19 -24 7 -54 18 -68 23 -14 6 -54 18 -90 28 -154 40 -205 55 -210 60 -8 8
-363 8 -385 0z"/>
<path d="M4430 7419 c0 -14 30 -38 48 -39 6 0 12 5 12 10 0 6 -7 10 -15 10 -9
0 -18 7 -21 15 -7 18 -24 20 -24 4z"/>
<path d="M4395 7360 c-3 -5 -1 -10 4 -10 6 0 11 5 11 10 0 6 -2 10 -4 10 -3 0
-8 -4 -11 -10z"/>
<path d="M3731 7378 c-1 -20 14 -24 25 -6 4 6 3 8 -4 4 -5 -3 -13 0 -15 6 -3
8 -6 6 -6 -4z"/>
<path d="M4245 7418 l-16 -33 20 25 c20 24 26 40 16 40 -2 0 -12 -15 -20 -32z"/>
<path d="M4085 7410 c-3 -5 1 -10 9 -10 9 0 16 5 16 10 0 6 -4 10 -9 10 -6 0
-13 -4 -16 -10z"/>
<path d="M4128 7408 c-12 -30 1 -48 25 -38 12 5 31 11 41 15 14 4 16 9 9 16
-8 8 -18 6 -36 -6 -25 -16 -26 -16 -29 7 -3 20 -4 20 -10 6z"/>
<path d="M4021 7380 c-19 -11 -42 -27 -50 -36 -15 -15 -14 -15 6 -5 32 16 56
14 49 -4 -3 -8 -3 -15 -1 -15 14 0 95 44 95 51 0 12 -27 11 -35 -1 -3 -5 -12
-7 -21 -3 -11 4 -12 9 -3 19 16 19 1 17 -40 -6z"/>
<path d="M4315 7361 c-6 -11 13 -26 22 -17 4 3 1 6 -6 6 -7 0 -9 5 -6 10 3 6
4 10 1 10 -3 0 -7 -4 -11 -9z"/>
<path d="M4260 7325 c-7 -8 -19 -15 -26 -15 -8 0 -14 -4 -14 -10 0 -5 4 -10 9
-10 14 0 57 38 50 44 -3 4 -12 0 -19 -9z"/>
<path d="M3929 7314 c-10 -13 -10 -17 2 -25 20 -12 35 -11 22 2 -6 6 -9 18 -6
25 7 19 -2 18 -18 -2z"/>
<path d="M4116 7301 c-16 -18 -12 -31 8 -31 6 0 5 4 -3 9 -10 7 -7 9 11 8 17
-2 24 -7 21 -17 -2 -8 2 -5 8 8 7 12 16 22 21 22 4 0 8 4 8 8 0 16 -58 11 -74
-7z"/>
<path d="M3875 7290 c-3 -5 -1 -10 4 -10 6 0 11 5 11 10 0 6 -2 10 -4 10 -3 0
-8 -4 -11 -10z"/>
<path d="M4027 7269 c-4 -16 -3 -18 9 -8 16 13 19 29 5 29 -5 0 -11 -9 -14
-21z"/>
<path d="M4075 7260 c-3 -6 1 -7 9 -4 18 7 21 14 7 14 -6 0 -13 -4 -16 -10z"/>
<path d="M4115 7250 c3 -5 10 -10 16 -10 5 0 9 5 9 10 0 6 -7 10 -16 10 -8 0
-12 -4 -9 -10z"/>
<path d="M3870 7245 c0 0 9 -8 19 -17 18 -16 20 -15 18 1 0 9 -9 17 -19 17
-10 0 -18 -1 -18 -1z"/>
<path d="M4151 7225 c-1 -12 -6 -26 -12 -32 -6 -6 -8 -17 -4 -23 6 -9 10 -9
16 1 6 10 9 11 9 2 0 -19 17 -16 24 4 4 10 1 22 -7 28 -7 5 -16 17 -20 25 -4
11 -6 9 -6 -5z"/>
<path d="M4115 7210 c3 -5 11 -10 16 -10 6 0 7 5 4 10 -3 6 -11 10 -16 10 -6
0 -7 -4 -4 -10z"/>
<path d="M3946 7165 c-9 -26 -7 -32 5 -12 6 10 9 21 6 23 -2 3 -7 -2 -11 -11z"/>
<path d="M4020 7170 c0 -5 5 -10 10 -10 6 0 10 5 10 10 0 6 -4 10 -10 10 -5 0
-10 -4 -10 -10z"/>
<path d="M3785 7149 c-4 -6 -5 -12 -2 -15 2 -3 7 2 10 11 7 17 1 20 -8 4z"/>
<path d="M3890 7140 c0 -5 5 -10 10 -10 6 0 10 5 10 10 0 6 -4 10 -10 10 -5 0
-10 -4 -10 -10z"/>
<path d="M4134 7134 c3 -9 6 -18 6 -20 0 -3 4 -3 10 1 11 7 2 35 -12 35 -6 0
-7 -7 -4 -16z"/>
<path d="M3915 7109 c-4 -6 -5 -12 -2 -15 2 -3 7 2 10 11 7 17 1 20 -8 4z"/>
<path d="M4045 7085 c0 -14 5 -21 13 -18 6 3 12 11 12 18 0 7 -6 15 -12 18 -8
3 -13 -4 -13 -18z"/>
<path d="M4130 7090 c-13 -8 -12 -10 3 -10 9 0 17 5 17 10 0 12 -1 12 -20 0z"/>
<path d="M4007 7076 c-4 -10 -1 -13 9 -9 15 6 19 23 5 23 -5 0 -11 -7 -14 -14z"/>
<path d="M4084 7065 c3 -10 -1 -15 -11 -15 -13 0 -14 -3 -5 -12 8 -8 15 -8 27
2 20 16 19 40 -1 40 -10 0 -14 -6 -10 -15z"/>
<path d="M3680 7044 c0 -8 5 -12 10 -9 6 3 10 10 10 16 0 5 -4 9 -10 9 -5 0
-10 -7 -10 -16z"/>
<path d="M3860 7030 c-13 -8 -12 -10 3 -10 9 0 17 5 17 10 0 12 -1 12 -20 0z"/>
<path d="M3505 6999 c-11 -16 -1 -19 13 -3 7 8 8 14 3 14 -5 0 -13 -5 -16 -11z"/>
<path d="M3973 6988 c-23 -30 -24 -41 -2 -21 12 12 20 25 17 28 -3 3 -10 0
-15 -7z"/>
<path d="M3570 6980 c0 -5 5 -10 11 -10 5 0 7 5 4 10 -3 6 -8 10 -11 10 -2 0
-4 -4 -4 -10z"/>
<path d="M3890 6966 c0 -8 5 -18 10 -21 6 -3 10 1 10 9 0 8 -4 18 -10 21 -5 3
-10 -1 -10 -9z"/>
<path d="M4014 6926 c-3 -9 -11 -13 -17 -9 -7 4 -8 0 -3 -13 14 -35 15 -56 4
-77 -9 -17 -6 -23 13 -38 26 -20 49 -24 49 -9 0 6 -10 10 -22 10 -17 0 -19 3
-10 12 20 20 13 32 -8 13 -24 -21 -27 -9 -4 16 12 14 13 22 4 39 -9 18 -8 25
5 40 11 12 13 20 6 25 -6 3 -14 -1 -17 -9z"/>
<path d="M4050 6929 c0 -5 5 -7 10 -4 6 3 10 8 10 11 0 2 -4 4 -10 4 -5 0 -10
-5 -10 -11z"/>
<path d="M3540 6904 c0 -8 5 -12 10 -9 6 3 10 10 10 16 0 5 -4 9 -10 9 -5 0
-10 -7 -10 -16z"/>
<path d="M3950 6900 c0 -5 5 -10 10 -10 6 0 10 5 10 10 0 6 -4 10 -10 10 -5 0
-10 -4 -10 -10z"/>
<path d="M3910 6875 c0 -8 2 -15 4 -15 2 0 6 7 10 15 3 8 1 15 -4 15 -6 0 -10
-7 -10 -15z"/>
<path d="M4058 6873 c6 -2 12 -11 12 -18 0 -7 -6 -15 -12 -18 -8 -2 -9 -8 -4
-13 5 -5 11 -4 13 4 3 6 10 9 16 5 7 -4 8 0 4 11 -4 10 -7 22 -7 27 0 5 -8 9
-17 8 -11 0 -13 -3 -5 -6z"/>
<path d="M3803 6825 c-13 -19 -17 -32 -10 -29 14 5 50 64 39 64 -4 0 -17 -16
-29 -35z"/>
<path d="M3675 6840 c-3 -5 -1 -10 4 -10 6 0 11 5 11 10 0 6 -2 10 -4 10 -3 0
-8 -4 -11 -10z"/>
<path d="M3951 6832 c-7 -13 -11 -26 -8 -28 8 -8 29 25 25 38 -3 8 -9 4 -17
-10z"/>
<path d="M4115 6840 c-3 -5 -1 -10 4 -10 6 0 11 5 11 10 0 6 -2 10 -4 10 -3 0
-8 -4 -11 -10z"/>
<path d="M3844 6833 c4 -5 13 -8 19 -8 7 0 11 -8 11 -18 -2 -20 12 -13 26 14
10 17 7 19 -26 19 -21 0 -34 -3 -30 -7z"/>
<path d="M3358 6803 c7 -3 16 -2 19 1 4 3 -2 6 -13 5 -11 0 -14 -3 -6 -6z"/>
<path d="M3320 6775 c-8 -9 -8 -15 -2 -15 12 0 26 19 19 26 -2 2 -10 -2 -17
-11z"/>
<path d="M3846 6761 c-4 -7 -5 -15 -2 -18 9 -9 19 4 14 18 -4 11 -6 11 -12 0z"/>
<path d="M3880 6761 c0 -6 5 -13 10 -16 6 -3 10 1 10 9 0 9 -4 16 -10 16 -5 0
-10 -4 -10 -9z"/>
<path d="M4000 6762 c0 -7 -6 -12 -14 -12 -16 0 -41 -28 -33 -37 4 -3 19 6 33
21 15 14 24 29 21 33 -4 3 -7 1 -7 -5z"/>
<path d="M3756 6743 c-6 -14 -5 -15 5 -6 7 7 10 15 7 18 -3 3 -9 -2 -12 -12z"/>
<path d="M4021 6723 c-8 -16 -19 -39 -26 -53 -13 -26 -10 -54 5 -45 5 3 7 12
4 19 -3 8 6 23 20 34 27 20 32 38 18 60 -6 9 -12 4 -21 -15z"/>
<path d="M4075 6719 c-4 -11 -4 -23 -1 -26 3 -4 1 -12 -5 -20 -9 -9 -8 -13 0
-13 10 0 15 14 12 34 -1 4 3 14 9 21 7 8 7 15 1 19 -5 4 -13 -3 -16 -15z"/>
<path d="M3780 6710 c-8 -5 -10 -10 -5 -10 6 0 17 5 25 10 8 5 11 10 5 10 -5
0 -17 -5 -25 -10z"/>
<path d="M3897 6713 c-4 -3 -7 -11 -7 -17 0 -6 5 -5 12 2 6 6 9 14 7 17 -3 3
-9 2 -12 -2z"/>
<path d="M3967 6703 c-12 -12 -7 -22 8 -17 8 4 15 10 15 15 0 11 -14 12 -23 2z"/>
<path d="M3247 6664 c-18 -20 -24 -34 -15 -33 7 0 26 16 41 35 18 20 24 34 15
33 -7 0 -26 -16 -41 -35z"/>
<path d="M3546 6681 c-4 -7 -5 -15 -2 -18 9 -9 19 4 14 18 -4 11 -6 11 -12 0z"/>
<path d="M3910 6681 c0 -5 5 -13 10 -16 6 -3 10 -2 10 4 0 5 -4 13 -10 16 -5
3 -10 2 -10 -4z"/>
<path d="M3940 6645 c0 -8 2 -15 4 -15 2 0 6 7 10 15 3 8 1 15 -4 15 -6 0 -10
-7 -10 -15z"/>
<path d="M4019 6658 c0 -2 -2 -14 -5 -27 -4 -20 -2 -22 11 -11 17 14 20 40 5
40 -5 0 -10 -1 -11 -2z"/>
<path d="M4047 6622 c-28 -29 -33 -42 -18 -42 5 0 18 16 30 35 25 42 23 43
-12 7z"/>
<path d="M3310 6620 c0 -5 5 -10 10 -10 6 0 10 -5 10 -10 0 -6 -11 -8 -26 -4
-18 5 -25 3 -20 -4 3 -6 2 -13 -3 -17 -6 -3 -8 -11 -5 -19 3 -9 15 -3 38 17
28 25 32 33 21 44 -16 16 -25 17 -25 3z"/>
<path d="M3190 6610 c0 -5 5 -10 10 -10 6 0 10 5 10 10 0 6 -4 10 -10 10 -5 0
-10 -4 -10 -10z"/>
<path d="M3970 6610 c0 -5 -6 -10 -14 -10 -14 0 -30 -29 -21 -38 3 -3 17 1 32
8 16 7 23 15 16 17 -7 2 -9 11 -6 19 3 8 2 14 -1 14 -3 0 -6 -4 -6 -10z"/>
<path d="M3841 6577 c-13 -21 -12 -21 5 -5 10 10 16 20 13 22 -3 3 -11 -5 -18
-17z"/>
<path d="M3880 6590 c0 -5 5 -10 10 -10 6 0 10 5 10 10 0 6 -4 10 -10 10 -5 0
-10 -4 -10 -10z"/>
<path d="M3180 6579 c0 -14 20 -20 36 -11 14 8 12 10 -10 14 -14 3 -26 2 -26
-3z"/>
<path d="M3330 6559 c-17 -30 -6 -34 14 -4 9 14 12 25 7 25 -6 0 -15 -9 -21
-21z"/>
<path d="M3985 6550 c-3 -5 -1 -10 4 -10 6 0 11 5 11 10 0 6 -2 10 -4 10 -3 0
-8 -4 -11 -10z"/>
<path d="M4040 6544 c0 -8 5 -12 10 -9 6 4 8 11 5 16 -9 14 -15 11 -15 -7z"/>
<path d="M3435 6540 c-4 -6 1 -17 11 -25 25 -18 30 -11 11 15 -10 14 -17 18
-22 10z"/>
<path d="M3795 6539 c-4 -6 -5 -12 -2 -15 2 -3 7 2 10 11 7 17 1 20 -8 4z"/>
<path d="M3860 6513 c0 -15 31 -46 38 -38 3 3 -4 15 -16 28 -12 12 -22 16 -22
10z"/>
<path d="M4185 6510 c-4 -6 -16 -8 -27 -4 -18 5 -20 3 -15 -15 4 -17 -1 -22
-29 -27 -19 -3 -34 -11 -34 -16 0 -6 7 -8 15 -4 10 3 16 -1 17 -12 0 -9 2 -22
2 -29 1 -7 7 -18 14 -25 10 -10 14 -8 18 10 4 12 10 20 14 17 10 -6 40 22 40
38 -1 7 -9 2 -19 -9 -13 -16 -22 -19 -34 -12 -25 14 -21 26 13 33 16 4 33 11
37 17 4 7 0 9 -10 5 -11 -4 -14 -2 -10 9 3 7 11 14 18 14 8 0 17 5 20 10 3 6
-1 10 -9 10 -8 0 -18 -5 -21 -10z"/>
<path d="M3933 6490 c1 -15 8 -20 27 -19 17 1 19 3 8 6 -10 2 -18 11 -18 19 0
8 -4 14 -9 14 -6 0 -9 -9 -8 -20z"/>
<path d="M4030 6500 c-13 -8 -13 -10 2 -10 9 0 20 5 23 10 8 13 -5 13 -25 0z"/>
<path d="M4222 6498 c-14 -14 -16 -28 -3 -28 9 0 24 30 18 36 -2 2 -9 -2 -15
-8z"/>
<path d="M4241 6479 c-14 -40 -14 -42 2 -28 12 11 22 59 13 59 -2 0 -9 -14
-15 -31z"/>
<path d="M4075 6489 c-10 -15 1 -23 20 -15 9 3 13 10 10 16 -8 13 -22 13 -30
-1z"/>
<path d="M3107 6462 c-19 -20 -23 -37 -7 -27 10 6 33 45 27 45 -2 0 -11 -8
-20 -18z"/>
<path d="M3990 6475 c0 -5 5 -17 10 -25 5 -8 10 -10 10 -5 0 6 -5 17 -10 25
-5 8 -10 11 -10 5z"/>
<path d="M4020 6470 c0 -5 5 -10 10 -10 6 0 10 5 10 10 0 6 -4 10 -10 10 -5 0
-10 -4 -10 -10z"/>
<path d="M3550 6449 c0 -5 5 -7 10 -4 6 3 10 8 10 11 0 2 -4 4 -10 4 -5 0 -10
-5 -10 -11z"/>
<path d="M3896 6452 c-3 -5 1 -15 9 -22 16 -14 20 -3 6 19 -5 8 -11 9 -15 3z"/>
<path d="M3920 6450 c0 -5 5 -10 10 -10 6 0 10 5 10 10 0 6 -4 10 -10 10 -5 0
-10 -4 -10 -10z"/>
<path d="M3720 6440 c-8 -5 -11 -12 -8 -16 10 -9 38 3 38 16 0 12 -10 13 -30
0z"/>
<path d="M4040 6418 c0 -19 2 -20 10 -8 13 19 13 30 0 30 -5 0 -10 -10 -10
-22z"/>
<path d="M3876 6404 c-11 -28 -6 -39 9 -20 8 11 15 23 15 28 0 14 -18 9 -24
-8z"/>
<path d="M3947 6399 c-5 -20 -5 -20 14 -3 23 20 23 24 5 24 -7 0 -16 -9 -19
-21z"/>
<path d="M4080 6410 c0 -5 5 -10 10 -10 6 0 10 5 10 10 0 6 -4 10 -10 10 -5 0
-10 -4 -10 -10z"/>
<path d="M3750 6403 c0 -17 19 -37 27 -29 4 5 2 11 -5 13 -6 3 -10 9 -6 14 3
5 0 9 -5 9 -6 0 -11 -3 -11 -7z"/>
<path d="M3989 6387 c-14 -13 -28 -33 -31 -44 -8 -32 14 -18 33 20 9 18 22 31
29 29 6 -1 9 2 5 8 -8 13 -5 13 -36 -13z"/>
<path d="M4375 6380 c4 -11 2 -20 -4 -20 -15 0 -14 -27 1 -36 6 -4 14 -2 16 5
3 9 7 9 18 0 8 -7 14 -7 14 -1 0 5 -7 15 -15 22 -9 7 -14 19 -11 26 3 7 -2 15
-10 18 -12 4 -14 1 -9 -14z"/>
<path d="M3067 6383 c-4 -3 -7 -11 -7 -17 0 -6 5 -5 12 2 6 6 9 14 7 17 -3 3
-9 2 -12 -2z"/>
<path d="M3677 6383 c-4 -3 -7 -11 -7 -17 0 -6 5 -5 12 2 6 6 9 14 7 17 -3 3
-9 2 -12 -2z"/>
<path d="M4411 6374 c0 -11 3 -14 6 -6 3 7 2 16 -1 19 -3 4 -6 -2 -5 -13z"/>
<path d="M4057 6373 c-10 -9 -9 -23 2 -23 5 0 11 7 15 15 5 15 -5 20 -17 8z"/>
<path d="M4090 6370 c0 -5 5 -10 10 -10 6 0 10 5 10 10 0 6 -4 10 -10 10 -5 0
-10 -4 -10 -10z"/>
<path d="M4230 6349 c0 -5 5 -7 10 -4 6 3 10 8 10 11 0 2 -4 4 -10 4 -5 0 -10
-5 -10 -11z"/>
<path d="M3717 6343 c-10 -9 -9 -23 2 -23 5 0 11 7 15 15 5 15 -5 20 -17 8z"/>
<path d="M3760 6340 c0 -5 5 -10 10 -10 6 0 10 5 10 10 0 6 -4 10 -10 10 -5 0
-10 -4 -10 -10z"/>
<path d="M4000 6320 c-11 -7 -12 -12 -4 -20 8 -8 13 -6 17 9 3 12 4 21 4 21
-1 0 -9 -5 -17 -10z"/>
<path d="M4057 6323 c-12 -11 -7 -50 7 -62 12 -10 14 -6 12 24 -3 38 -9 49
-19 38z"/>
<path d="M4216 6317 c3 -10 9 -15 12 -12 3 3 0 11 -7 18 -10 9 -11 8 -5 -6z"/>
<path d="M3773 6305 c-16 -12 -22 -12 -26 -2 -3 6 -6 1 -6 -12 -1 -13 -9 -30
-18 -38 -10 -8 -12 -12 -5 -8 7 4 20 1 28 -6 8 -6 17 -9 21 -5 3 3 1 6 -5 6
-20 0 -13 41 7 47 11 3 22 11 25 19 7 18 5 17 -21 -1z"/>
<path d="M3836 6304 c-5 -14 -4 -15 8 -5 11 9 15 9 19 -1 2 -7 8 -9 13 -5 5 4
2 12 -6 17 -21 14 -27 12 -34 -6z"/>
<path d="M3670 6293 c0 -13 5 -23 10 -23 13 0 13 11 0 30 -8 12 -10 11 -10 -7z"/>
<path d="M3620 6289 c0 -5 5 -7 10 -4 6 3 10 8 10 11 0 2 -4 4 -10 4 -5 0 -10
-5 -10 -11z"/>
<path d="M3891 6276 c-6 -7 -8 -16 -4 -19 3 -4 0 -7 -8 -7 -10 -1 -8 -4 4 -11
10 -6 19 -9 20 -7 1 1 7 13 14 25 10 17 9 22 -2 27 -7 2 -18 -1 -24 -8z"/>
<path d="M4097 6283 c-13 -12 -7 -25 6 -14 8 6 18 7 22 3 5 -4 5 -1 1 6 -8 13
-19 16 -29 5z"/>
<path d="M4157 6276 c-4 -10 -1 -13 9 -9 7 3 14 9 14 14 0 14 -17 10 -23 -5z"/>
<path d="M3801 6264 c0 -11 3 -14 6 -6 3 7 2 16 -1 19 -3 4 -6 -2 -5 -13z"/>
<path d="M4020 6258 c0 -33 15 -54 26 -37 4 7 3 14 -4 17 -6 2 -9 9 -6 17 3 7
1 16 -5 20 -7 4 -11 -3 -11 -17z"/>
<path d="M3955 6260 c-3 -5 -1 -10 4 -10 6 0 11 5 11 10 0 6 -2 10 -4 10 -3 0
-8 -4 -11 -10z"/>
<path d="M3635 6250 c-3 -5 -1 -10 4 -10 6 0 11 5 11 10 0 6 -2 10 -4 10 -3 0
-8 -4 -11 -10z"/>
<path d="M3813 6220 c-6 -16 -10 -30 -8 -30 2 0 13 14 25 30 15 21 17 30 8 30
-8 0 -19 -13 -25 -30z"/>
<path d="M3980 6241 c0 -6 4 -13 10 -16 6 -3 7 1 4 9 -7 18 -14 21 -14 7z"/>
<path d="M3655 6230 c-16 -7 -17 -9 -3 -9 9 -1 20 4 23 9 7 11 7 11 -20 0z"/>
<path d="M3776 6212 l-19 -27 26 24 c28 26 32 31 20 31 -5 0 -17 -13 -27 -28z"/>
<path d="M3940 6225 c0 -8 5 -15 10 -15 6 0 10 7 10 15 0 8 -4 15 -10 15 -5 0
-10 -7 -10 -15z"/>
<path d="M4157 6233 c-4 -3 -7 -11 -7 -17 0 -6 5 -5 12 2 6 6 9 14 7 17 -3 3
-9 2 -12 -2z"/>
<path d="M3703 6180 c-7 -11 -9 -21 -3 -25 9 -6 13 -1 23 28 9 23 -5 22 -20
-3z"/>
<path d="M3826 6183 c-6 -14 -5 -15 5 -6 7 7 10 15 7 18 -3 3 -9 -2 -12 -12z"/>
<path d="M3942 6184 c-12 -8 -22 -11 -22 -5 0 6 -7 8 -15 5 -8 -4 -15 -10 -15
-15 0 -6 -9 -19 -20 -31 -30 -32 -14 -36 18 -5 16 15 31 25 33 22 3 -3 16 6
29 20 27 29 24 32 -8 9z"/>
<path d="M4008 6176 c-15 -13 -24 -26 -22 -29 3 -3 -3 -8 -13 -11 -10 -3 -19
-15 -20 -26 -1 -13 2 -18 10 -13 7 3 3 -3 -7 -15 -11 -12 -16 -25 -13 -29 4
-3 7 -1 7 5 0 7 7 12 15 12 8 0 15 -5 15 -12 0 -6 9 -3 20 7 22 20 26 14 9
-17 -19 -36 -2 -30 20 7 27 46 27 46 -8 39 -36 -7 -45 6 -27 41 8 14 16 21 19
15 3 -6 4 -5 3 2 -3 14 12 32 34 41 13 5 13 5 0 6 -8 0 -27 -10 -42 -23z"/>
<path d="M4123 6185 c-17 -18 -16 -22 3 -29 9 -3 12 -2 9 5 -4 5 -1 16 5 24
16 19 -1 19 -17 0z"/>
<path d="M4215 6190 c-3 -5 -1 -10 4 -10 6 0 11 5 11 10 0 6 -2 10 -4 10 -3 0
-8 -4 -11 -10z"/>
<path d="M4081 6172 c-7 -14 -6 -19 3 -19 6 0 13 9 13 19 1 10 0 18 -2 18 -2
0 -9 -8 -14 -18z"/>
<path d="M3629 6103 c-13 -16 -12 -17 4 -4 9 7 17 15 17 17 0 8 -8 3 -21 -13z"/>
<path d="M3665 6109 c-11 -17 1 -21 15 -4 8 9 8 15 2 15 -6 0 -14 -5 -17 -11z"/>
<path d="M3690 6090 c-8 -5 -12 -12 -9 -15 4 -3 12 1 19 10 14 17 11 19 -10 5z"/>
<path d="M3898 6084 c-26 -13 -38 -34 -20 -34 10 1 56 40 51 44 -2 2 -16 -2
-31 -10z"/>
<path d="M3655 6070 c-3 -5 -1 -10 4 -10 6 0 11 5 11 10 0 6 -2 10 -4 10 -3 0
-8 -4 -11 -10z"/>
<path d="M3710 6039 c0 -5 5 -7 10 -4 6 3 10 8 10 11 0 2 -4 4 -10 4 -5 0 -10
-5 -10 -11z"/>
<path d="M3773 6024 c-10 -21 -9 -23 8 -13 20 10 25 24 11 33 -4 2 -12 -6 -19
-20z"/>
<path d="M3903 6033 c-11 -11 -28 -23 -37 -26 -15 -6 -16 -10 -5 -23 11 -14
14 -13 23 3 5 10 19 25 30 35 12 9 18 19 14 23 -3 4 -15 -2 -25 -12z"/>
<path d="M3512 6024 c-7 -8 -8 -14 -3 -14 10 0 25 19 20 25 -2 1 -10 -3 -17
-11z"/>
<path d="M3660 6007 c-8 -12 -13 -25 -12 -29 1 -5 -2 -8 -8 -8 -5 0 -10 -5
-10 -12 0 -6 -7 -20 -17 -30 -35 -39 -6 -21 39 24 26 26 41 45 33 42 -8 -4
-15 -1 -15 4 0 6 8 12 18 14 15 3 15 4 1 10 -10 4 -21 -2 -29 -15z"/>
<path d="M3615 5994 c-9 -15 -12 -23 -6 -20 11 7 35 46 28 46 -3 0 -12 -12
-22 -26z"/>
<path d="M3810 6010 c0 -5 7 -10 16 -10 8 0 12 5 9 10 -3 6 -10 10 -16 10 -5
0 -9 -4 -9 -10z"/>
<path d="M3690 5965 c-19 -19 -29 -35 -24 -35 13 0 69 58 63 65 -3 2 -21 -11
-39 -30z"/>
<path d="M3740 5973 c0 -6 -3 -18 -6 -27 -3 -9 -2 -16 4 -16 15 0 24 32 12 44
-7 7 -10 7 -10 -1z"/>
<path d="M3780 5950 c0 -5 5 -10 11 -10 5 0 7 5 4 10 -3 6 -8 10 -11 10 -2 0
-4 -4 -4 -10z"/>
<path d="M4015 5940 c-3 -5 -1 -10 4 -10 6 0 11 5 11 10 0 6 -2 10 -4 10 -3 0
-8 -4 -11 -10z"/>
<path d="M3375 5930 c-3 -5 -2 -10 4 -10 5 0 13 5 16 10 3 6 2 10 -4 10 -5 0
-13 -4 -16 -10z"/>
<path d="M3695 5930 c-3 -6 1 -7 9 -4 18 7 21 14 7 14 -6 0 -13 -4 -16 -10z"/>
<path d="M3315 5916 c-11 -8 -25 -12 -31 -9 -17 6 -94 -16 -94 -27 0 -13 17
-13 25 1 4 5 12 8 18 6 7 -2 20 0 31 5 13 7 21 6 27 -3 6 -10 11 -11 17 -3 4
6 15 13 25 17 9 3 17 11 17 17 0 14 -13 13 -35 -4z"/>
<path d="M3565 5904 c9 -9 19 -13 23 -10 3 4 0 11 -8 16 -24 15 -33 11 -15 -6z"/>
<path d="M3780 5910 c0 -5 5 -10 10 -10 6 0 10 5 10 10 0 6 -4 10 -10 10 -5 0
-10 -4 -10 -10z"/>
<path d="M3828 5901 c13 -12 20 -25 16 -35 -10 -27 10 -17 23 11 13 27 8 47
-6 25 -6 -10 -11 -10 -21 3 -7 8 -18 15 -24 15 -6 -1 -1 -9 12 -19z"/>
<path d="M4143 5913 c-15 -5 -17 -23 -4 -23 5 0 11 7 15 15 3 8 4 15 3 14 -1
0 -8 -3 -14 -6z"/>
<path d="M3468 5883 c-10 -2 -18 -9 -18 -14 0 -6 8 -5 20 1 11 6 20 13 20 15
0 3 -1 4 -2 4 -2 -1 -11 -3 -20 -6z"/>
<path d="M3160 5845 c-14 -16 -10 -18 14 -9 9 3 16 10 16 15 0 14 -16 11 -30
-6z"/>
<path d="M3215 5840 c-7 -11 2 -30 15 -30 4 0 11 7 14 16 6 15 4 15 -11 3 -15
-12 -16 -12 -10 4 7 18 2 23 -8 7z"/>
<path d="M3423 5833 c9 -9 20 -13 24 -9 4 4 1 11 -7 16 -25 16 -35 11 -17 -7z"/>
<path d="M3710 5820 c0 -5 5 -10 10 -10 6 0 10 5 10 10 0 6 -4 10 -10 10 -5 0
-10 -4 -10 -10z"/>
<path d="M3160 5797 c0 -23 -4 -27 -27 -27 l-28 -1 25 -14 c31 -17 52 -3 47
31 -4 34 -17 42 -17 11z"/>
<path d="M3025 5799 c-4 -6 -5 -13 -2 -16 7 -7 27 6 27 18 0 12 -17 12 -25 -2z"/>
<path d="M3330 5800 c0 -5 5 -10 10 -10 6 0 10 5 10 10 0 6 -4 10 -10 10 -5 0
-10 -4 -10 -10z"/>
<path d="M4405 6160 c-3 -5 -2 -10 4 -10 5 0 13 5 16 10 3 6 2 10 -4 10 -5 0
-13 -4 -16 -10z"/>
<path d="M3280 5632 c0 -4 9 -8 20 -9 11 -1 18 2 15 8 -7 11 -35 12 -35 1z"/>
<path d="M5620 4549 c0 -7 10 -9 25 -7 27 6 33 -10 13 -30 -9 -9 -8 -12 4 -12
21 0 31 29 17 46 -14 17 -59 19 -59 3z"/>
<path d="M5570 4510 c0 -5 5 -10 10 -10 6 0 10 5 10 10 0 6 -4 10 -10 10 -5 0
-10 -4 -10 -10z"/>
<path d="M4771 4364 c0 -11 3 -14 6 -6 3 7 2 16 -1 19 -3 4 -6 -2 -5 -13z"/>
<path d="M4767 4323 c-4 -3 -7 -11 -7 -17 0 -6 5 -5 12 2 6 6 9 14 7 17 -3 3
-9 2 -12 -2z"/>
<path d="M4710 4311 c0 -5 5 -13 10 -16 6 -3 10 -2 10 4 0 5 -4 13 -10 16 -5
3 -10 2 -10 -4z"/>
<path d="M4743 4263 c-10 -15 -14 -15 -21 -5 -7 11 -10 11 -15 -2 -6 -14 3
-20 24 -18 4 1 10 -10 13 -23 10 -41 25 -28 24 20 -1 49 -6 55 -25 28z"/>
<path d="M4620 4213 c-13 -15 -12 -16 2 -10 29 10 78 -15 78 -40 0 -18 -6 -23
-27 -23 -42 0 -18 -12 32 -16 34 -3 44 0 38 9 -4 6 -9 20 -10 30 -6 39 -43 80
-43 47 0 -15 -16 -12 -34 5 -18 18 -17 18 -36 -2z"/>
<path d="M4646 4095 c-11 -30 -6 -40 11 -22 12 12 14 20 6 28 -7 7 -12 6 -17
-6z"/>
<path d="M4605 4010 c-4 -6 -12 -7 -18 -4 -7 4 -9 3 -4 -1 13 -15 46 -13 40 2
-6 16 -10 16 -18 3z"/>
<path d="M4610 3903 c0 -5 8 -17 17 -28 14 -18 15 -18 9 -2 -3 10 -6 23 -6 28
0 5 -4 9 -10 9 -5 0 -10 -3 -10 -7z"/>
<path d="M4590 3891 c0 -5 5 -13 10 -16 6 -3 10 -2 10 4 0 5 -4 13 -10 16 -5
3 -10 2 -10 -4z"/>
</g>
</svg>
